<svg width="104" height="201" viewBox="0 0 104 201" fill="none" xmlns="http://www.w3.org/2000/svg">
<path d="M35.5102 197.357V191.206L24.4817 191.127L24.3882 200.429L25.0716 200.479C28.1147 200.674 40.5532 200.961 42.5964 200.328C44.8697 199.623 35.5102 197.357 35.5102 197.357Z" fill="#4CAF4F"/>
<path d="M42.8555 199.753C42.8555 199.854 38.7261 199.94 33.6399 199.94C28.5537 199.94 24.4243 199.854 24.4243 199.753C24.4243 199.652 28.5537 199.566 33.6399 199.566C38.7261 199.566 42.8555 199.652 42.8555 199.753Z" fill="#263238"/>
<path d="M35.7045 198.616C35.611 198.566 35.7045 198.242 35.9275 197.897C36.1505 197.552 36.4527 197.408 36.5246 197.48C36.5965 197.552 36.4455 197.825 36.2296 198.12C36.0138 198.415 35.798 198.667 35.7045 198.616Z" fill="#263238"/>
<path d="M36.4095 199.019C36.3087 199.019 36.3591 198.616 36.5749 198.235C36.7907 197.854 37.0785 197.623 37.1576 197.681C37.2368 197.738 37.1073 198.062 36.9058 198.4C36.7044 198.738 36.503 199.055 36.4095 199.019Z" fill="#263238"/>
<path d="M27.7479 199.724C27.7048 199.724 27.5393 199.595 27.3019 199.321C27.0121 198.97 26.6893 198.647 26.3379 198.357C25.9924 198.081 25.5807 197.9 25.1437 197.832C24.8056 197.789 24.5898 197.832 24.5682 197.789C24.5466 197.746 24.7552 197.595 25.1509 197.566C25.6731 197.555 26.1825 197.728 26.5897 198.055C26.9713 198.366 27.293 198.744 27.5393 199.17C27.7048 199.487 27.7911 199.695 27.7479 199.724Z" fill="#263238"/>
<path d="M35.7404 197.458C35.7908 197.544 35.6037 197.76 35.2872 197.875C34.9707 197.99 34.6901 197.947 34.6757 197.875C34.6613 197.803 34.8843 197.652 35.1577 197.552C35.4311 197.451 35.6829 197.372 35.7404 197.458Z" fill="#263238"/>
<path d="M35.568 196.861C35.568 196.969 35.2802 197.055 34.9061 197.062C34.532 197.069 34.2371 196.983 34.2443 196.882C34.2515 196.782 34.5464 196.688 34.9061 196.681C35.2658 196.674 35.5536 196.76 35.568 196.861Z" fill="#263238"/>
<path d="M62.6679 197.357V191.206L51.6394 191.127L51.5459 200.336L52.2293 200.386C55.2724 200.58 67.7181 200.961 69.7541 200.328C72.0274 199.623 62.6679 197.357 62.6679 197.357Z" fill="#4CAF4F"/>
<path d="M70.0131 199.767C70.0131 199.868 65.8909 199.954 60.7975 199.954C55.7041 199.954 51.5891 199.868 51.5891 199.767C51.5891 199.667 55.7113 199.58 60.7975 199.58C65.8837 199.58 70.0131 199.667 70.0131 199.767Z" fill="#263238"/>
<path d="M62.8621 198.616C62.7757 198.566 62.8621 198.242 63.0851 197.897C63.3081 197.552 63.6102 197.408 63.6822 197.48C63.7541 197.552 63.603 197.825 63.3872 198.12C63.1714 198.415 62.9556 198.667 62.8621 198.616Z" fill="#263238"/>
<path d="M63.5671 199.019C63.4736 199.019 63.5168 198.616 63.7398 198.235C63.9628 197.854 64.2434 197.623 64.3225 197.681C64.4017 197.738 64.265 198.062 64.0635 198.4C63.8621 198.738 63.6679 199.055 63.5671 199.019Z" fill="#263238"/>
<path d="M54.9054 199.724C54.8623 199.724 54.704 199.595 54.4594 199.321C54.1696 198.97 53.8468 198.647 53.4954 198.357C53.1498 198.081 52.7382 197.9 52.3012 197.832C51.9702 197.789 51.7472 197.832 51.7256 197.789C51.7041 197.746 51.9127 197.595 52.3084 197.566C52.8305 197.555 53.3399 197.728 53.7472 198.055C54.1307 198.364 54.4528 198.742 54.6968 199.17C54.8623 199.487 54.9486 199.695 54.9054 199.724Z" fill="#263238"/>
<path d="M62.8981 197.458C62.9485 197.544 62.7615 197.76 62.4449 197.875C62.1284 197.99 61.8478 197.947 61.8334 197.875C61.819 197.803 62.042 197.652 62.3154 197.552C62.5888 197.451 62.8406 197.372 62.8981 197.458Z" fill="#263238"/>
<path d="M62.7397 196.861C62.7397 196.969 62.452 197.055 62.0779 197.062C61.7038 197.069 61.416 196.983 61.4232 196.882C61.4304 196.782 61.7182 196.688 62.0779 196.681C62.4376 196.674 62.7397 196.76 62.7397 196.861Z" fill="#263238"/>
<path d="M103.3 14.7C103.012 14.4051 102.3 14.549 102.3 14.549C102.371 14.1348 102.371 13.7114 102.3 13.2972C102.17 12.8943 101.264 12.9735 101.264 12.9735C101.222 12.6342 101.222 12.2911 101.264 11.9519C101.271 11.8767 101.255 11.8011 101.218 11.7354C101.18 11.6698 101.124 11.6172 101.055 11.585C100.627 11.4101 100.166 11.3268 99.7029 11.3404C99.149 10.9447 101.394 7.80092 102.228 6.79376C103.063 5.78659 102.911 5.00244 102.17 5.00244C101.66 5.00244 99.0411 8.02395 98.2353 9.03831C97.4296 10.0527 95.293 12.8727 95.221 10.621C95.1491 8.36926 94.2426 6.67146 93.6743 6.3837C93.106 6.09594 92.5017 6.77217 92.811 7.39805C93.0828 8.10912 93.2523 8.85514 93.3146 9.61383C93.3927 10.2182 93.366 10.8315 93.2355 11.4267C92.9969 12.5343 92.6722 13.6215 92.2643 14.6785H92.2067C92.2067 14.6785 76.5093 29.7356 75.3726 30.8075C74.3582 31.7715 53.9559 29.6637 49.8625 29.232C48.4715 29.0285 47.0669 28.9323 45.6611 28.9443C43.8842 29.0234 43.5676 29.2752 41.7979 29.2968C37.3286 29.3464 32.8696 29.7384 28.4601 30.4694C26.4635 30.8089 24.5985 31.6902 23.0685 33.0172C21.5385 34.3441 20.4024 36.0658 19.7841 37.9944C15.6619 50.8718 6.32399 81.353 4.67655 98.4749C3.43166 100.732 2.3078 103.055 1.30973 105.432C0.151489 108.583 0.432057 108.69 0.820536 108.762C1.87087 108.957 3.06508 103.302 3.51111 104.669C3.95715 106.036 1.24499 111.41 2.34568 111.568C3.78449 111.77 4.92835 105.813 5.06503 105.338C5.20172 104.863 5.91393 105.014 5.78444 105.46C5.57581 106.093 3.55428 112.805 4.96432 113.021C5.74128 113.136 5.8276 111.719 5.8276 111.719C5.8276 111.719 7.26642 105.295 7.92108 105.424C8.57574 105.554 7.87791 109.345 7.54698 110.611C7.21606 111.877 7.67647 112.518 8.35272 112.208C8.81314 111.993 9.91383 108.144 10.216 106.892C10.5181 105.64 11.2735 102.173 12.2879 104.18C13.3022 106.187 14.8418 107.352 15.4748 107.381C15.6175 107.365 15.752 107.306 15.8609 107.212C15.9699 107.119 16.0484 106.995 16.0863 106.856C16.1242 106.718 16.1198 106.571 16.0737 106.435C16.0275 106.299 15.9417 106.18 15.8273 106.093C15.2828 105.562 14.8155 104.956 14.4389 104.295C14.1033 103.78 13.8599 103.21 13.7195 102.611C13.4296 101.418 13.2609 100.199 13.2159 98.9713L13.1008 98.2519C14.7123 90.2736 19.3524 66.857 26.0501 51.9005L28.7982 57.5551L29.9925 61.742L22.6689 79.8207L53.9055 79.4106L49.2438 61.4686L54.9055 42.7641C61.0276 42.9008 76.7467 43.131 79.3653 41.9439C82.6602 40.5051 99.7029 18.9805 99.7029 18.9805C100.814 18.1173 101.878 17.1951 102.89 16.218C102.89 16.218 103.926 15.3475 103.3 14.7Z" fill="#FFBE9D"/>
<path d="M21.2947 66.4613C22.2012 63.3679 26.8557 48.0733 26.8557 48.0733C26.8557 48.0733 29.1435 60.5406 28.5392 62.0441C27.9833 63.3313 27.3266 64.5726 26.5752 65.7563C21.2947 73.792 21.9854 77.8135 21.9854 77.8135L53.891 76.8423C53.963 72.382 51.3228 62.0082 50.776 60.3535C50.2293 58.6989 52.0494 53.2818 52.0494 53.2818C52.0494 53.2818 55.6464 49.62 55.5169 47.7352C55.4486 46.0421 55.2392 44.3576 54.891 42.6993L74.315 43.4187L73.7035 30.2536L45.8049 27.4623C44.8337 30.2032 36.0498 28.8579 36.0498 28.8579C26.568 29.1745 25.9781 30.9154 22.0357 33.9801C18.0934 37.0448 11.5684 63.3463 11.5684 63.3463L21.2947 66.4613Z" fill="#4CAF4F"/>
<path d="M40.1577 63.3464C39.6048 63.4452 39.0417 63.4742 38.4815 63.4327C37.4384 63.4327 36.0068 63.3607 34.4313 63.2025C32.8558 63.0442 31.4314 62.8212 30.417 62.6198C29.8577 62.5477 29.3093 62.4076 28.7839 62.2025C29.3464 62.2027 29.9076 62.2557 30.4602 62.3608C31.4817 62.4903 32.8989 62.6701 34.4672 62.8284C36.0355 62.9867 37.46 63.0946 38.4887 63.1665C39.0495 63.1736 39.6083 63.2338 40.1577 63.3464Z" fill="#263238"/>
<path d="M42.3446 60.6342C41.7915 60.9051 41.2066 61.1057 40.6036 61.2313C37.7335 61.9854 34.7723 62.3365 31.8053 62.2744C31.1914 62.2944 30.5774 62.2364 29.978 62.1017C30.584 62.0252 31.1947 61.994 31.8053 62.0082C32.9348 61.9723 34.4887 61.8931 36.2009 61.6917C37.9131 61.4902 39.4382 61.2025 40.5173 60.9723C41.1167 60.8122 41.7276 60.6992 42.3446 60.6342Z" fill="#263238"/>
<path d="M53.0783 48.5337C53.0638 49.0822 52.989 49.6274 52.8553 50.1595C52.6682 51.1595 52.3805 52.5264 52.0136 54.0228C51.6467 55.5191 51.2942 56.9004 50.9776 57.8356C50.8504 58.3709 50.6621 58.8899 50.4165 59.3823C50.4566 58.8356 50.5579 58.295 50.7187 57.7709C50.992 56.6486 51.3014 55.3537 51.6467 53.9364C51.992 52.5192 52.3229 51.2243 52.5963 50.102C52.6937 49.5618 52.8555 49.0353 53.0783 48.5337Z" fill="#263238"/>
<path d="M21.633 64.6269C19.9687 64.3699 18.3261 63.9875 16.7194 63.483C15.0777 63.0992 13.4666 62.5942 11.8994 61.9723C13.5629 62.2335 15.2051 62.6158 16.813 63.1161C18.4551 63.4987 20.0663 64.0037 21.633 64.6269Z" fill="#263238"/>
<path d="M55.2364 42.5411C54.965 42.5878 54.6876 42.5878 54.4162 42.5411C53.6648 42.464 52.927 42.2874 52.2221 42.0159C51.0452 41.5737 49.9738 40.8901 49.0768 40.0093C48.1798 39.1284 47.477 38.0696 47.0136 36.9009C46.5013 35.6153 46.2825 34.2316 46.3733 32.8507C46.4054 31.7117 46.746 30.6027 47.3589 29.6421C47.7899 28.995 48.4338 28.5191 49.179 28.2968C49.3781 28.2419 49.5839 28.2152 49.7905 28.2177C49.9343 28.2177 50.0063 28.2177 50.0063 28.2177C50.0063 28.2177 49.7041 28.2177 49.2221 28.4119C48.5385 28.6645 47.9588 29.1379 47.5747 29.7572C46.5963 31.2967 46.3229 34.1096 47.3661 36.7355C47.8516 37.9736 48.6116 39.0854 49.589 39.9872C50.3899 40.7251 51.3123 41.3189 52.3156 41.7425C53.2571 42.1146 54.2365 42.3824 55.2364 42.5411Z" fill="#263238"/>
<path d="M72.0059 43.1598C71.8259 40.9537 71.7682 38.7393 71.8332 36.5268C71.7768 34.3162 71.8441 32.1042 72.0346 29.9011C72.2147 32.1048 72.2724 34.3168 72.2073 36.5268C72.2678 38.7399 72.2005 40.9545 72.0059 43.1598Z" fill="#263238"/>
<path d="M45.618 28.2681C45.6971 26.6638 45.8625 24.8509 45.8625 24.8509C45.8625 24.8509 49.8337 24.412 50.0711 20.3114C50.3085 16.2108 50.0711 6.75062 50.0711 6.75062L42.877 3.06726L34.8916 9.34767L36.1218 29.8507L43.4453 30.3184C44.0051 30.3339 44.5482 30.1267 44.9555 29.7424C45.3628 29.358 45.601 28.8278 45.618 28.2681Z" fill="#FFBE9D"/>
<path d="M46.3303 17.0669C46.3303 17.0669 46.3303 17.1461 46.2655 17.2396C46.212 17.3074 46.1428 17.3612 46.0638 17.3963C45.9848 17.4314 45.8985 17.4467 45.8123 17.441C45.3519 17.441 44.9059 16.9087 44.7476 16.29C44.6724 15.9901 44.6724 15.6762 44.7476 15.3763C44.7623 15.2454 44.8096 15.1203 44.8849 15.0122C44.9603 14.9042 45.0615 14.8167 45.1792 14.7576C45.276 14.7177 45.3846 14.7177 45.4814 14.7576C45.5531 14.7933 45.6112 14.8514 45.6468 14.9231C45.6972 15.0454 45.6468 15.1245 45.6468 15.1173C45.6468 15.1101 45.6468 15.0454 45.5749 14.9735C45.5373 14.9219 45.482 14.8861 45.4196 14.8728C45.3572 14.8595 45.2921 14.8698 45.2368 14.9015C45.1485 14.9549 45.0752 15.0297 45.0236 15.119C44.9721 15.2083 44.9439 15.3092 44.9418 15.4123C44.8813 15.6799 44.8813 15.9576 44.9418 16.2252C45.0857 16.7864 45.4742 17.2396 45.8195 17.2828C45.887 17.2919 45.9558 17.2871 46.0214 17.2685C46.087 17.2499 46.148 17.2181 46.2008 17.1748C46.2871 17.1173 46.3159 17.0597 46.3303 17.0669Z" fill="#EB996E"/>
<path d="M52.5387 4.53486C51.9848 2.65001 49.9776 1.71479 48.1503 1.19681C45.3662 0.405466 42.3591 0.060149 39.6398 1.06012C36.9204 2.0601 33.6543 3.81545 33.6543 6.81537C32.05 6.68588 31.1292 8.08872 30.4961 9.82969C30.0914 10.8904 29.8488 12.006 29.7767 13.139C29.5753 17.0669 28.4746 22.4912 25.9279 25.3689C24.4891 26.9731 22.4963 28.081 21.6762 30.081C20.9568 31.8148 21.3309 33.8722 20.6618 35.6276C20.0647 37.1743 18.7482 38.275 17.7842 39.6203C16.8021 41.1464 16.2241 42.8972 16.1046 44.7081C15.985 46.519 16.3278 48.3306 17.1008 49.9726C17.8793 51.5725 18.9754 52.9971 20.3223 54.1597C21.6692 55.3223 23.2386 56.1985 24.9351 56.735C28.2955 57.7573 31.8789 57.7923 35.2586 56.8357C37.795 56.2292 40.1611 55.056 42.1793 53.4041C44.2442 51.7179 45.6625 49.3694 46.1936 46.7568C46.7043 43.8216 45.8842 40.8361 45.2727 37.9153C43.3591 28.6853 43.9058 28.2033 46.323 19.6352C46.3806 19.4841 46.4094 19.3259 46.4525 19.1748C46.4957 19.0237 46.5173 18.9518 46.5461 18.8367C46.6147 18.498 46.6509 18.1535 46.654 17.8079C46.3009 17.9392 45.9177 17.967 45.5494 17.888C45.1811 17.8089 44.843 17.6264 44.5749 17.3619C44.3061 17.0798 44.1188 16.7302 44.0326 16.3502C43.9465 15.9703 43.9648 15.574 44.0857 15.2037C44.2554 14.7986 44.5084 14.4336 44.8281 14.1325C45.1478 13.8313 45.5272 13.6007 45.9418 13.4555C46.7403 13.1246 47.5964 12.9519 48.3806 12.585C50.0424 11.7937 51.1934 10.1534 51.9776 8.43404C52.6223 7.24237 52.8212 5.85996 52.5387 4.53486Z" fill="#263238"/>
<path d="M46.618 17.2611C46.77 17.4857 46.8955 17.7271 46.9921 17.9805C47.2079 18.4337 47.4957 19.074 47.8122 19.815L47.8697 19.9517H47.7187L46.9993 20.0164C46.5029 20.0164 46.0856 20.11 45.5964 20.1028C45.5538 20.0932 45.5143 20.073 45.4816 20.0441C45.4489 20.0151 45.4241 19.9784 45.4094 19.9373C45.388 19.8719 45.388 19.8013 45.4094 19.7359C45.426 19.6389 45.4476 19.5428 45.4741 19.4481L45.6036 18.9373C45.6687 18.5966 45.77 18.2638 45.9058 17.9445C45.8924 18.2919 45.8417 18.6368 45.7547 18.9733L45.654 19.4841C45.618 19.6567 45.5533 19.9229 45.654 19.9013C46.0137 19.9013 46.5244 19.8222 46.9993 19.7934L47.7187 19.7287L47.6251 19.8869C47.3158 19.1675 47.0568 18.4913 46.9057 18.0237C46.7732 17.7848 46.6763 17.528 46.618 17.2611Z" fill="#4CAF4F"/>
<path d="M21.9855 77.8136L53.8911 76.8424L67.7757 131.042L65.2218 193.214H48.3517L50.4164 132.366L38.0786 94.6333L39.9778 195.624L22.9279 195.875L21.1366 100.95C21.0574 98.3095 20.1942 92.36 20.5179 89.7414L21.9855 77.8136Z" fill="#263238"/>
<path d="M42.323 95.403C41.8008 95.4359 41.2765 95.4045 40.7619 95.3095C39.7979 95.1944 38.4814 94.9929 37.0354 94.7052C35.5894 94.4174 34.2945 94.0865 33.3592 93.8203C32.8593 93.7104 32.3757 93.5363 31.9204 93.3024C31.9204 93.1944 34.2657 93.7556 37.1433 94.3383C40.0209 94.921 42.3374 95.2951 42.323 95.403Z" fill="#455A64"/>
<path d="M65.0491 189.804C65.0491 189.904 61.229 189.991 56.5169 189.991C51.8048 189.991 47.9775 189.904 47.9775 189.804C47.9775 189.703 51.7976 189.616 56.5169 189.616C61.2362 189.616 65.0491 189.696 65.0491 189.804Z" fill="#455A64"/>
<path d="M39.8267 192.998C39.8267 193.106 36.1146 193.185 31.5392 193.185C26.9637 193.185 23.2588 193.106 23.2588 192.998C23.2588 192.89 26.9709 192.811 31.5392 192.811C36.1074 192.811 39.8267 192.897 39.8267 192.998Z" fill="#455A64"/>
<path d="M37.6254 192.739C37.5247 192.739 37.0787 170.675 36.6255 143.459C36.1722 116.244 35.9061 94.1656 35.9996 94.1656C36.0931 94.1656 36.5535 116.223 36.9996 143.452C37.4456 170.682 37.7334 192.739 37.6254 192.739Z" fill="#455A64"/>
<path d="M62.7831 189.804C62.7752 189.705 62.7752 189.607 62.7831 189.509V188.645C62.7831 187.868 62.8406 186.753 62.8838 185.336C62.9845 182.458 63.1284 178.279 63.3082 173.157C63.6967 162.855 64.2435 148.654 64.8406 132.978C64.8406 132.827 64.8406 132.683 64.8406 132.553V132.604C61.0637 117.496 57.6465 103.784 55.1646 93.8636L52.2869 82.13C51.956 80.756 51.7042 79.6841 51.5244 78.9359C51.4381 78.5834 51.3805 78.31 51.3301 78.1014C51.3021 78.0077 51.2852 77.9112 51.2798 77.8136C51.3172 77.9043 51.346 77.9982 51.3661 78.0942C51.4237 78.2956 51.4956 78.569 51.5963 78.9143C51.7906 79.6337 52.0711 80.7272 52.4308 82.0941C53.1502 84.871 54.1646 88.8709 55.4308 93.7988C57.9343 103.712 61.3874 117.388 65.2147 132.517V132.568C65.2147 132.697 65.2147 132.848 65.2147 132.992C64.5744 148.668 63.9917 162.862 63.5672 173.164C63.3442 178.293 63.1572 182.444 63.0277 185.336C62.9557 186.775 62.8982 187.868 62.8622 188.645C62.8622 189.012 62.8191 189.3 62.8119 189.509C62.8129 189.608 62.8033 189.707 62.7831 189.804Z" fill="#455A64"/>
<path d="M57.2796 131.287C56.0679 131.685 54.8196 131.963 53.5531 132.114C51.9992 132.38 50.6754 132.568 50.0783 132.596V132.452C50.2726 132.51 50.3733 132.546 50.3733 132.575C50.3733 132.604 50.251 132.575 50.0496 132.575H49.6179L50.0496 132.445C50.6107 132.28 51.9344 132.006 53.4883 131.726C54.7346 131.455 56.0045 131.308 57.2796 131.287Z" fill="#455A64"/>
<path d="M56.9847 133.352C55.8625 133.403 54.738 133.353 53.625 133.201C52.5013 133.178 51.3818 133.055 50.2798 132.834C52.5281 132.65 54.7912 132.825 56.9847 133.352Z" fill="#455A64"/>
<path opacity="0.2" d="M21.8489 78.9575C22.2267 79.4427 22.7027 79.8427 23.2456 80.1316C23.7886 80.4204 24.3863 80.5915 24.9999 80.6337C26.2849 80.7859 27.5846 80.7617 28.8631 80.5617C37.1003 79.6481 45.8267 78.8064 53.8912 76.8424C43.4526 77.4251 32.4241 77.2309 21.9856 77.8136L21.8776 78.7057" fill="black"/>
<g opacity="0.2">
<path d="M32.604 93.6693L38.4887 116.503L38.0787 94.6333L32.604 93.6693Z" fill="black"/>
</g>
</svg>
