<svg width="41" height="4" viewBox="0 0 41 4" fill="none" xmlns="http://www.w3.org/2000/svg">
<g opacity="0.2">
<path d="M3.65309 1.95761C3.63186 2.24699 3.52616 2.52376 3.34908 2.75362C3.172 2.98347 2.93134 3.15628 2.65695 3.25062C2.38256 3.34496 2.08651 3.35668 1.80552 3.28432C1.52453 3.21196 1.27096 3.05872 1.07627 2.84358C0.881572 2.62845 0.754321 2.36087 0.710285 2.07408C0.666248 1.78728 0.707363 1.49387 0.828543 1.23023C0.949723 0.966594 1.14564 0.744333 1.39197 0.591006C1.63831 0.437678 1.92423 0.360033 2.21428 0.367706C2.61507 0.390039 2.99091 0.569496 3.26026 0.867128C3.52961 1.16476 3.67076 1.55658 3.65309 1.95761Z" fill="white"/>
<path d="M8.23575 1.97923C8.2499 2.18204 8.22217 2.38558 8.15429 2.57722C8.0864 2.76887 7.97981 2.9445 7.84115 3.09318C7.70248 3.24186 7.53471 3.36042 7.34826 3.44149C7.16181 3.52255 6.96067 3.56439 6.75736 3.56439C6.55405 3.56439 6.35292 3.52255 6.16647 3.44149C5.98002 3.36042 5.81224 3.24186 5.67358 3.09318C5.53491 2.9445 5.42832 2.76887 5.36044 2.57722C5.29256 2.38558 5.26483 2.18204 5.27899 1.97923C5.26483 1.77641 5.29256 1.57285 5.36044 1.38121C5.42832 1.18957 5.53491 1.01394 5.67358 0.865253C5.81224 0.716571 5.98002 0.598008 6.16647 0.516944C6.35292 0.435881 6.55405 0.394043 6.75736 0.394043C6.96067 0.394043 7.16181 0.435881 7.34826 0.516944C7.53471 0.598008 7.70248 0.716571 7.84115 0.865253C7.97981 1.01394 8.0864 1.18957 8.15429 1.38121C8.22217 1.57285 8.2499 1.77641 8.23575 1.97923Z" fill="white"/>
<path d="M12.8255 2.00082C12.8042 2.2902 12.6985 2.56697 12.5214 2.79683C12.3444 3.02668 12.1037 3.19949 11.8293 3.29383C11.5549 3.38818 11.2589 3.39989 10.9779 3.32753C10.6969 3.25518 10.4433 3.10194 10.2486 2.8868C10.0539 2.67166 9.92668 2.40409 9.88265 2.11729C9.83861 1.8305 9.87973 1.53709 10.0009 1.27345C10.1221 1.00981 10.318 0.787546 10.5643 0.634218C10.8107 0.480891 11.0966 0.403245 11.3866 0.410919C11.7868 0.435073 12.1615 0.615058 12.4305 0.912273C12.6994 1.20949 12.8412 1.60028 12.8255 2.00082Z" fill="white"/>
<path d="M17.4082 2.02231C17.387 2.31168 17.2813 2.58846 17.1042 2.81831C16.9271 3.04817 16.6865 3.22098 16.4121 3.31532C16.1377 3.40966 15.8416 3.42138 15.5606 3.34902C15.2797 3.27666 15.0261 3.12342 14.8314 2.90828C14.6367 2.69314 14.5094 2.42559 14.4654 2.1388C14.4214 1.852 14.4625 1.55857 14.5837 1.29493C14.7049 1.03129 14.9008 0.80903 15.1471 0.655703C15.3934 0.502375 15.6794 0.42473 15.9694 0.432403C16.3695 0.456558 16.7443 0.636542 17.0132 0.933757C17.2822 1.23097 17.424 1.62177 17.4082 2.02231Z" fill="white"/>
<path d="M21.9908 2.03673C21.9709 2.32653 21.8663 2.60411 21.69 2.83497C21.5137 3.06583 21.2734 3.23978 20.9991 3.3352C20.7247 3.43063 20.4284 3.44332 20.1469 3.37169C19.8653 3.30007 19.6111 3.1473 19.4157 2.93236C19.2203 2.71742 19.0924 2.44979 19.0478 2.16274C19.0033 1.8757 19.0441 1.5819 19.1651 1.31785C19.2862 1.05379 19.4822 0.831141 19.7287 0.677564C19.9753 0.523988 20.2616 0.446241 20.552 0.454023C20.9508 0.478169 21.3244 0.657155 21.5932 0.952808C21.862 1.24846 22.0046 1.6374 21.9908 2.03673Z" fill="white"/>
<path d="M26.5807 2.05829C26.561 2.3466 26.4575 2.62287 26.2829 2.85311C26.1083 3.08336 25.8701 3.25755 25.5978 3.3542C25.3255 3.45086 25.0308 3.46578 24.7501 3.39715C24.4694 3.32851 24.2149 3.17929 24.0179 2.96787C23.8209 2.75645 23.69 2.49206 23.6413 2.20721C23.5926 1.92236 23.6283 1.6295 23.7439 1.36466C23.8595 1.09982 24.05 0.874546 24.292 0.716586C24.534 0.558625 24.8169 0.474856 25.1059 0.475591C25.5111 0.490592 25.8938 0.665601 26.1702 0.962257C26.4467 1.25891 26.5943 1.65304 26.5807 2.05829Z" fill="white"/>
<path d="M31.1632 2.07991C31.1774 2.28273 31.1497 2.48629 31.0818 2.67793C31.0139 2.86957 30.9073 3.0452 30.7686 3.19389C30.63 3.34257 30.4622 3.46113 30.2757 3.54219C30.0893 3.62326 29.8882 3.66507 29.6849 3.66507C29.4815 3.66507 29.2804 3.62326 29.0939 3.54219C28.9075 3.46113 28.7397 3.34257 28.6011 3.19389C28.4624 3.0452 28.3558 2.86957 28.2879 2.67793C28.22 2.48629 28.1923 2.28273 28.2065 2.07991C28.1923 1.8771 28.22 1.67353 28.2879 1.48189C28.3558 1.29025 28.4624 1.11462 28.6011 0.965939C28.7397 0.817257 28.9075 0.698716 29.0939 0.617652C29.2804 0.536589 29.4815 0.494751 29.6849 0.494751C29.8882 0.494751 30.0893 0.536589 30.2757 0.617652C30.4622 0.698716 30.63 0.817257 30.7686 0.965939C30.9073 1.11462 31.0139 1.29025 31.0818 1.48189C31.1497 1.67353 31.1774 1.8771 31.1632 2.07991Z" fill="white"/>
<path d="M35.7457 2.10148C35.726 2.38979 35.6225 2.66608 35.4479 2.89633C35.2733 3.12657 35.0351 3.30074 34.7628 3.39739C34.4905 3.49405 34.1958 3.50898 33.9151 3.44034C33.6344 3.3717 33.3799 3.22248 33.1829 3.01106C32.9859 2.79964 32.855 2.53525 32.8063 2.2504C32.7577 1.96555 32.7933 1.67269 32.9089 1.40785C33.0245 1.14301 33.2151 0.917737 33.457 0.759777C33.699 0.601816 33.9819 0.518069 34.2709 0.518804C34.6761 0.533805 35.0588 0.708792 35.3353 1.00545C35.6117 1.3021 35.7593 1.69623 35.7457 2.10148Z" fill="white"/>
<path d="M40.3284 2.12301C40.3086 2.41281 40.204 2.69039 40.0277 2.92125C39.8514 3.15211 39.6111 3.32606 39.3367 3.42149C39.0624 3.51691 38.766 3.52962 38.4845 3.458C38.203 3.38637 37.9487 3.23358 37.7533 3.01864C37.5579 2.8037 37.43 2.53607 37.3854 2.24903C37.3409 1.96198 37.3817 1.66818 37.5028 1.40413C37.6238 1.14007 37.8198 0.917422 38.0664 0.763846C38.313 0.61027 38.5992 0.532545 38.8896 0.540327C39.2884 0.564473 39.6621 0.743437 39.9308 1.03909C40.1996 1.33474 40.3423 1.72368 40.3284 2.12301Z" fill="white"/>
</g>
</svg>
