<svg width="46" height="40" viewBox="0 0 46 40" fill="none" xmlns="http://www.w3.org/2000/svg">
<path d="M45.6657 27.4136C45.6656 34.3333 40.0561 39.9429 33.1364 39.9429L14.3425 39.9429C12.4204 39.9429 10.8622 38.3847 10.8622 36.4625L10.8622 12.7962C10.8622 8.95187 13.9786 5.83547 17.8229 5.83547L42.1853 5.83547C44.1074 5.83547 45.6657 7.39367 45.6657 9.31581L45.6657 27.4136Z" fill="#E8F5E9"/>
<path d="M20.128 17.4212C19.9604 17.4212 19.8048 17.3751 19.6666 17.301V17.3029C19.6666 17.5666 19.5641 17.8143 19.3781 17.9998C19.1921 18.1857 18.9447 18.2882 18.6813 18.2882C18.5112 18.2882 18.3536 18.241 18.2139 18.1649C18.1998 18.4061 18.1034 18.6316 17.9313 18.8038C17.7454 18.9898 17.4979 19.0923 17.2343 19.0923C16.7107 19.0923 16.2855 18.6807 16.2548 18.1647C16.0928 18.2523 15.9096 18.2982 15.7207 18.2861C15.2056 18.2523 14.8022 17.8072 14.8022 17.2726V12.841L14.2975 13.7152C14.1053 14.0496 13.7456 14.2572 13.3582 14.2572C13.1694 14.2572 12.983 14.2077 12.8178 14.113C12.6122 13.9938 12.4651 13.8024 12.4039 13.5735C12.3424 13.3444 12.3742 13.1048 12.4931 12.8995C12.4933 12.8995 14.1442 10.0406 14.2449 9.86496C14.2569 9.83856 14.291 9.76197 14.32 9.6967C14.3477 9.63439 14.3715 9.57043 14.3943 9.50614C14.8922 8.10058 16.1249 7.22748 17.6117 7.22748C19.5424 7.22748 21.1131 8.93069 21.1131 11.0243L21.1132 16.4357C21.1132 16.6991 21.0109 16.9466 20.8251 17.1327C20.6391 17.3187 20.3917 17.4212 20.128 17.4212L20.128 17.4212ZM17.6117 7.75103C16.3342 7.75103 15.316 8.47261 14.8878 9.68124C14.8604 9.75798 14.8319 9.83473 14.7986 9.90951C14.702 10.1261 14.702 10.1261 14.6748 10.1573L14.6712 10.1542C14.5364 10.4085 14.1359 11.1021 12.9464 13.1615C12.8976 13.2459 12.8846 13.344 12.9095 13.4378C12.9348 13.5316 12.9953 13.6107 13.0791 13.659C13.3392 13.8084 13.6954 13.712 13.8436 13.4537L14.8373 11.7334C14.8966 11.6309 15.0167 11.5806 15.1318 11.6117C15.2463 11.6424 15.3258 11.7462 15.3258 11.8646V17.2727C15.3258 17.5279 15.5183 17.7482 15.755 17.7637C15.8914 17.7709 16.0187 17.7252 16.1143 17.6297C16.2012 17.5428 16.2491 17.4271 16.2491 17.3032V13.7663C16.2491 13.6216 16.3664 13.5044 16.511 13.5044C16.6556 13.5044 16.7729 13.6214 16.7729 13.7663L16.7727 18.1072C16.7727 18.3617 16.9799 18.5688 17.2344 18.5688C17.358 18.5688 17.4741 18.5209 17.5612 18.434C17.6481 18.347 17.696 18.2308 17.696 18.1072V13.7662C17.696 13.6216 17.8131 13.5043 17.9579 13.5043C18.1025 13.5043 18.2198 13.6214 18.2198 13.7662L18.2196 17.2626V17.3032C18.2196 17.5576 18.4268 17.7647 18.6814 17.7647C18.8049 17.7647 18.9207 17.7166 19.0083 17.6294C19.0952 17.5426 19.1431 17.4269 19.1431 17.3031V13.7661C19.1431 13.6214 19.2602 13.5042 19.405 13.5042C19.5496 13.5042 19.6669 13.6213 19.6669 13.7661L19.6665 16.4359C19.6665 16.6906 19.8737 16.8977 20.128 16.8977C20.2518 16.8977 20.3676 16.8496 20.4545 16.7629C20.5418 16.6756 20.5895 16.5595 20.5895 16.4359L20.5896 11.0244C20.5896 9.21966 19.2538 7.75108 17.6117 7.75108L17.6117 7.75103Z" fill="#103E13"/>
<path d="M9.83834 21.1823L13.6387 18.9025C14.0969 18.6273 14.6864 18.7443 14.9803 19.1688C15.0876 19.3235 15.1423 19.5037 15.1509 19.6872C15.2925 19.6133 15.4467 19.5731 15.6036 19.5731C15.684 19.5731 15.7647 19.5831 15.8444 19.6029C16.0997 19.6667 16.3149 19.8263 16.4502 20.0519C16.5856 20.2779 16.6252 20.5427 16.5614 20.7978C16.5025 21.0338 16.359 21.2324 16.1594 21.3687C16.299 21.451 16.4193 21.5633 16.505 21.7063C16.6404 21.9323 16.6799 22.197 16.6163 22.4523C16.5525 22.7073 16.3929 22.9225 16.167 23.0581L16.1657 23.059C16.3028 23.1411 16.421 23.2523 16.5056 23.3932C16.6412 23.6192 16.6808 23.884 16.617 24.1393C16.553 24.3945 16.3934 24.6096 16.1678 24.7451L11.5275 27.5289C10.6615 28.0483 9.66028 28.2275 8.7088 28.0332C7.7488 27.8371 6.95374 27.2853 6.47032 26.4794C5.70528 25.2043 5.81993 23.6979 6.76895 22.5481C6.81241 22.4956 6.85521 22.4422 6.89408 22.3867C6.93524 22.3282 6.98329 22.2593 6.99969 22.2357C7.09792 22.0602 8.7008 19.1723 8.70063 19.1727C8.86249 18.8806 9.16588 18.7153 9.47877 18.7154C9.62472 18.7154 9.77281 18.7513 9.90942 18.8271C10.0744 18.9193 10.213 19.0536 10.3099 19.2154C10.5091 19.5475 10.5162 19.9631 10.3286 20.2994L9.83834 21.1823ZM9.86114 19.4847C9.8103 19.3999 9.74044 19.3323 9.655 19.2844C9.47838 19.1867 9.25601 19.2503 9.15877 19.4263C8.01182 21.4926 7.62084 22.1968 7.46996 22.4474L7.4734 22.4482C7.46077 22.4902 7.46077 22.4902 7.32269 22.6874C7.27579 22.7542 7.22479 22.8183 7.17281 22.8815C6.35676 23.8702 6.262 25.1144 6.91911 26.21C7.32614 26.8886 7.99884 27.3538 8.81338 27.5201C9.63678 27.6876 10.5046 27.5318 11.2579 27.0798L15.8986 24.2959C16.0045 24.2324 16.0793 24.1316 16.1091 24.012C16.139 23.8927 16.1205 23.7685 16.0568 23.6626C15.926 23.4445 15.6418 23.3728 15.4236 23.5042L13.1343 24.8776C13.0103 24.9521 12.8493 24.912 12.775 24.7879C12.7006 24.6639 12.7407 24.503 12.8647 24.4286L15.1542 23.0551L15.8978 22.6091C16.0037 22.5455 16.0786 22.4446 16.1085 22.3254C16.1383 22.2058 16.1198 22.0815 16.0562 21.9758C15.9251 21.7575 15.6409 21.6865 15.423 21.8173L12.39 23.6368C12.2657 23.7115 12.1051 23.6711 12.0307 23.5471C11.9562 23.4232 11.9965 23.2623 12.1204 23.1878L15.8428 20.9548C15.9488 20.8911 16.0235 20.7904 16.0534 20.6709C16.0832 20.5515 16.0647 20.4274 16.0012 20.3214C15.9378 20.2156 15.8369 20.1409 15.7174 20.111C15.5972 20.0812 15.4735 20.0997 15.3679 20.163L14.6788 20.5764C14.6786 20.5764 14.6786 20.5766 14.6785 20.5766H14.6783L11.6454 22.3961C11.5211 22.4709 11.3604 22.4305 11.2861 22.3064C11.2117 22.1824 11.252 22.0215 11.3758 21.9471L14.4089 20.1276C14.5148 20.064 14.5898 19.9631 14.6196 19.8439C14.6524 19.713 14.6275 19.5792 14.5497 19.467C14.4149 19.272 14.1266 19.2202 13.908 19.3516L9.27071 22.1336C9.16919 22.1942 9.03915 22.1795 8.95404 22.0973C8.86876 22.015 8.84957 21.8856 8.90697 21.7821L9.87126 20.0448C9.96801 19.8711 9.96424 19.6566 9.86109 19.4847L9.86114 19.4847Z" fill="#103E13"/>
<path d="M27.9982 26.4793C27.5149 27.2853 26.72 27.837 25.7598 28.0331C24.8082 28.2271 23.8073 28.0482 22.9411 27.5288L18.3004 24.7449C18.0746 24.6094 17.9149 24.3943 17.8509 24.1388C17.7875 23.8837 17.8271 23.6189 17.9624 23.3932C18.0469 23.2522 18.1653 23.141 18.3026 23.0589L18.3012 23.058C18.0754 22.9226 17.9157 22.7074 17.8521 22.4522C17.7881 22.1971 17.8278 21.932 17.9633 21.7061C18.0505 21.561 18.1701 21.4475 18.3065 21.367C18.1084 21.2307 17.9657 21.0327 17.907 20.7979C17.8431 20.5426 17.8827 20.2777 18.0182 20.052C18.1535 19.8262 18.3688 19.6667 18.624 19.6029C18.7037 19.5829 18.7845 19.573 18.8646 19.573C19.0217 19.5732 19.1758 19.613 19.3175 19.6872C19.3262 19.5037 19.3808 19.3234 19.4881 19.1688C19.7821 18.7445 20.3712 18.6271 20.83 18.9024L24.6303 21.1819L24.1404 20.2996C23.9525 19.9628 23.9594 19.5472 24.1586 19.215C24.2557 19.0533 24.3944 18.919 24.5602 18.826C24.6965 18.7506 24.8441 18.7148 24.9897 18.7148C25.3024 18.715 25.6062 18.88 25.7678 19.1721C26.3313 20.1873 27.3946 22.1021 27.4694 22.2358C27.4853 22.2589 27.5334 22.3278 27.5745 22.3863C27.6137 22.4419 27.656 22.495 27.6998 22.5479C28.6487 23.6981 28.7631 25.2044 27.9981 26.4793L27.9982 26.4793ZM27.2958 22.8816C27.2436 22.8185 27.1925 22.754 27.1459 22.6876C27.0042 22.4865 27.0006 22.4813 26.99 22.4287C26.8243 22.1546 26.4203 21.4272 25.3095 19.4261C25.2121 19.2505 24.9907 19.1863 24.8144 19.2838C24.7277 19.3323 24.658 19.4 24.6072 19.4848C24.5042 19.6565 24.5002 19.871 24.5975 20.0452L25.5614 21.782C25.619 21.8857 25.5998 22.0149 25.5147 22.0972C25.4297 22.1797 25.2999 22.1941 25.1979 22.1335L20.5605 19.3515C20.3419 19.2204 20.0538 19.2718 19.9187 19.4669C19.8409 19.5791 19.8162 19.7129 19.8486 19.8436C19.8785 19.963 19.9534 20.0637 20.0595 20.1273C20.0598 20.1275 20.06 20.1278 20.0603 20.128L23.0924 21.947C23.2164 22.0214 23.2566 22.1821 23.1821 22.3063C23.1077 22.4301 22.9471 22.4706 22.8228 22.396L19.1003 20.1629C18.9947 20.0996 18.8704 20.0809 18.751 20.1109C18.6313 20.1408 18.5306 20.2156 18.4672 20.3217C18.4035 20.4274 18.3852 20.5516 18.4147 20.671C18.4445 20.7904 18.5195 20.8912 18.6254 20.9548L19.3498 21.3893L22.3477 23.188C22.4717 23.2624 22.5119 23.4231 22.4374 23.5473C22.363 23.6711 22.2024 23.7114 22.0781 23.637L19.0454 21.8175C18.8273 21.6863 18.5433 21.7574 18.4121 21.9759C18.3484 22.0818 18.3301 22.206 18.3596 22.3253C18.3894 22.4447 18.4644 22.5454 18.5705 22.6092L19.314 23.0553L21.6032 24.4287C21.7272 24.5032 21.7673 24.6639 21.6929 24.788C21.6184 24.9118 21.4579 24.9525 21.3336 24.8777L19.0444 23.5043C18.9388 23.441 18.815 23.4223 18.695 23.4523C18.5756 23.4821 18.4745 23.5569 18.4111 23.6627C18.3476 23.7686 18.3291 23.8929 18.3586 24.0122C18.3885 24.1316 18.4634 24.2322 18.5695 24.296L23.2102 27.08C23.9633 27.5318 24.8318 27.6882 25.6547 27.5203C26.4691 27.354 27.1418 26.8887 27.5488 26.2101C28.2066 25.1143 28.1119 23.87 27.2961 22.8816L27.2958 22.8816Z" fill="#103E13"/>
</svg>
