<svg width="34" height="34" viewBox="0 0 34 34" fill="none" xmlns="http://www.w3.org/2000/svg">
<path d="M4.13275 11.6343V11.9823H4.48079H29.5393H29.8873V11.6343V10.0681C29.8873 9.28351 29.5756 8.53106 29.0209 7.97627C28.4661 7.42148 27.7136 7.1098 26.929 7.1098H7.09105C6.30646 7.1098 5.554 7.42148 4.99922 7.97627C4.44443 8.53106 4.13275 9.28351 4.13275 10.0681V11.6343ZM29.8873 13.7225V13.3744H29.5393H4.48079H4.13275V13.7225V23.6415C4.13275 24.426 4.44443 25.1785 4.99922 25.7333C5.554 26.2881 6.30646 26.5997 7.09105 26.5997H26.929C27.7136 26.5997 28.4661 26.2881 29.0209 25.7333C29.5756 25.1785 29.8873 24.426 29.8873 23.6415V13.7225ZM2.74061 10.0681C2.74061 8.91429 3.19896 7.80774 4.01483 6.99188C4.83069 6.17601 5.93724 5.71766 7.09105 5.71766H26.929C28.0828 5.71766 29.1894 6.17601 30.0052 6.99188C30.8211 7.80774 31.2795 8.91429 31.2795 10.0681V23.6415C31.2795 24.7953 30.8211 25.9018 30.0052 26.7177C29.1894 27.5335 28.0828 27.9919 26.929 27.9919H7.09105C5.93724 27.9919 4.83069 27.5335 4.01483 26.7177C3.19896 25.9018 2.74061 24.7953 2.74061 23.6415V10.0681ZM22.2306 20.3351H25.3629C25.5475 20.3351 25.7245 20.4085 25.8551 20.539C25.9856 20.6695 26.0589 20.8466 26.0589 21.0312C26.0589 21.2158 25.9856 21.3929 25.8551 21.5234C25.7245 21.6539 25.5475 21.7273 25.3629 21.7273H22.2306C22.0459 21.7273 21.8689 21.6539 21.7384 21.5234C21.6078 21.3929 21.5345 21.2158 21.5345 21.0312C21.5345 20.8466 21.6078 20.6695 21.7384 20.539C21.8689 20.4085 22.0459 20.3351 22.2306 20.3351Z" fill="#4CAF4F" stroke="#4CAF4F" stroke-width="0.696069"/>
</svg>
