<svg width="46" height="40" viewBox="0 0 46 40" fill="none" xmlns="http://www.w3.org/2000/svg">
<path d="M45.7925 27.4136C45.7925 34.3333 40.1829 39.9429 33.2632 39.9429L14.4694 39.9429C12.5472 39.9429 10.989 38.3847 10.989 36.4625L10.989 12.7962C10.989 8.95187 14.1054 5.83547 17.9497 5.83547L42.3121 5.83547C44.2343 5.83547 45.7925 7.39367 45.7925 9.31581L45.7925 27.4136Z" fill="#E8F5E9"/>
<path d="M19.2836 14.1957C19.0665 14.1957 18.8899 14.0194 18.8899 13.8019V13.1328C18.8899 12.9156 19.0662 12.739 19.2836 12.739C19.5008 12.739 19.6774 12.9153 19.6774 13.1328V13.8019C19.6774 14.0194 19.5008 14.1957 19.2836 14.1957Z" fill="#103E13"/>
<path d="M17.6281 14.1957C17.4109 14.1957 17.2344 14.0194 17.2344 13.8019V13.1328C17.2344 12.9156 17.4107 12.739 17.6281 12.739C17.8453 12.739 18.0219 12.9153 18.0219 13.1328V13.8019C18.0216 14.0194 17.8456 14.1957 17.6281 14.1957Z" fill="#103E13"/>
<path d="M15.9729 14.1957C15.7557 14.1957 15.5791 14.0194 15.5791 13.8019V13.1328C15.5791 12.9156 15.7554 12.739 15.9729 12.739C16.19 12.739 16.3666 12.9153 16.3666 13.1328V13.8019C16.3666 14.0194 16.1903 14.1957 15.9729 14.1957Z" fill="#103E13"/>
<path d="M19.2836 16.9322C19.0665 16.9322 18.8899 16.7559 18.8899 16.5385V15.8696C18.8899 15.6524 19.0662 15.4758 19.2836 15.4758C19.5008 15.4758 19.6774 15.6521 19.6774 15.8696V16.5385C19.6774 16.7559 19.5008 16.9322 19.2836 16.9322Z" fill="#103E13"/>
<path d="M17.6281 16.9322C17.4109 16.9322 17.2344 16.7559 17.2344 16.5385V15.8696C17.2344 15.6524 17.4107 15.4758 17.6281 15.4758C17.8453 15.4758 18.0219 15.6521 18.0219 15.8696V16.5385C18.0216 16.7559 17.8456 16.9322 17.6281 16.9322Z" fill="#103E13"/>
<path d="M15.9729 16.9322C15.7557 16.9322 15.5791 16.7559 15.5791 16.5385V15.8696C15.5791 15.6524 15.7554 15.4758 15.9729 15.4758C16.19 15.4758 16.3666 15.6521 16.3666 15.8696V16.5385C16.3666 16.7559 16.1903 16.9322 15.9729 16.9322Z" fill="#103E13"/>
<path d="M19.2836 19.6686C19.0665 19.6686 18.8899 19.4923 18.8899 19.2748V18.6057C18.8899 18.3885 19.0662 18.2119 19.2836 18.2119C19.5008 18.2119 19.6774 18.3882 19.6774 18.6057V19.2748C19.6774 19.4923 19.5008 19.6686 19.2836 19.6686Z" fill="#103E13"/>
<path d="M17.6281 19.6686C17.4109 19.6686 17.2344 19.4923 17.2344 19.2748V18.6057C17.2344 18.3885 17.4107 18.2119 17.6281 18.2119C17.8453 18.2119 18.0219 18.3882 18.0219 18.6057V19.2748C18.0216 19.4923 17.8456 19.6686 17.6281 19.6686Z" fill="#103E13"/>
<path d="M15.9729 19.6686C15.7557 19.6686 15.5791 19.4923 15.5791 19.2748V18.6057C15.5791 18.3885 15.7554 18.2119 15.9729 18.2119C16.19 18.2119 16.3666 18.3882 16.3666 18.6057V19.2748C16.3666 19.4923 16.1903 19.6686 15.9729 19.6686Z" fill="#103E13"/>
<path d="M19.2836 22.4044C19.0665 22.4044 18.8899 22.2281 18.8899 22.0106V21.3415C18.8899 21.1243 19.0662 20.9478 19.2836 20.9478C19.5008 20.9478 19.6774 21.124 19.6774 21.3415V22.0106C19.6774 22.2281 19.5008 22.4044 19.2836 22.4044Z" fill="#103E13"/>
<path d="M17.6281 22.4044C17.4109 22.4044 17.2344 22.2281 17.2344 22.0106V21.3415C17.2344 21.1243 17.4107 20.9478 17.6281 20.9478C17.8453 20.9478 18.0219 21.124 18.0219 21.3415V22.0106C18.0216 22.2281 17.8456 22.4044 17.6281 22.4044Z" fill="#103E13"/>
<path d="M15.9729 22.4044C15.7557 22.4044 15.5791 22.2281 15.5791 22.0106V21.3415C15.5791 21.1243 15.7554 20.9478 15.9729 20.9478C16.19 20.9478 16.3666 21.124 16.3666 21.3415V22.0106C16.3666 22.2281 16.1903 22.4044 15.9729 22.4044Z" fill="#103E13"/>
<path d="M19.2836 25.1409C19.0665 25.1409 18.8899 24.9647 18.8899 24.7472V24.0783C18.8899 23.8611 19.0662 23.6846 19.2836 23.6846C19.5008 23.6846 19.6774 23.8609 19.6774 24.0783V24.7472C19.6774 24.9644 19.5008 25.1409 19.2836 25.1409Z" fill="#103E13"/>
<path d="M17.6281 25.1409C17.4109 25.1409 17.2344 24.9647 17.2344 24.7472V24.0783C17.2344 23.8611 17.4107 23.6846 17.6281 23.6846C17.8453 23.6846 18.0219 23.8609 18.0219 24.0783V24.7472C18.0216 24.9644 17.8456 25.1409 17.6281 25.1409Z" fill="#103E13"/>
<path d="M15.9729 25.1409C15.7557 25.1409 15.5791 24.9647 15.5791 24.7472L15.5794 24.0783C15.5794 23.8611 15.7557 23.6846 15.9731 23.6846C16.1903 23.6846 16.3669 23.8609 16.3669 24.0783V24.7472C16.3666 24.9644 16.1903 25.1409 15.9729 25.1409Z" fill="#103E13"/>
<path d="M4.7247 27.864C4.7247 28.0812 4.90097 28.2578 5.11844 28.2578H29.0965C29.3137 28.2578 29.4902 28.0815 29.4902 27.864C29.4902 27.6468 29.3139 27.4703 29.0965 27.4703H28.3686V16.1652C28.3686 15.948 28.1923 15.7714 27.9749 15.7714L21.5462 15.7717V7.62135C21.5462 7.48351 21.4742 7.35611 21.3567 7.28471C21.2394 7.21305 21.0928 7.20866 20.9709 7.27208L13.6619 11.0775C13.5315 11.1453 13.4502 11.2798 13.4502 11.4268V18.5459H6.37675C6.15956 18.5459 5.983 18.7222 5.983 18.9397V27.4703H5.11757C4.90038 27.47 4.72437 27.6463 4.72437 27.8638L4.7247 27.864ZM21.5463 21.7352H27.5815V27.4706L21.5463 27.4703V21.7352ZM21.5463 18.999H27.5815V20.948L21.5463 20.9477V18.999ZM21.5463 16.5588H27.5815V18.2121H21.5463V16.5588ZM14.2373 11.6658L20.7585 8.27038V27.4699H14.2373V11.6658ZM8.71693 24.3254C8.71693 23.5083 9.36439 22.8433 10.1604 22.8433C10.9564 22.8433 11.6041 23.508 11.6041 24.3254V27.4704H8.71693V24.3254ZM6.77048 19.3333H13.4501V27.4703H12.3916V24.3253C12.3916 23.074 11.3911 22.0559 10.1604 22.0559C8.93027 22.0559 7.92973 23.0737 7.92973 24.3253V27.4703H6.77048V19.3333Z" fill="#103E13"/>
</svg>
