<svg width="34" height="34" viewBox="0 0 34 34" fill="none" xmlns="http://www.w3.org/2000/svg">
<mask id="path-1-inside-1_211_2338" fill="white">
<path d="M20.0113 16.7647C19.8437 16.7647 19.6881 16.7186 19.5499 16.6445V16.6464C19.5499 16.9101 19.4474 17.1578 19.2614 17.3433C19.0754 17.5292 18.828 17.6317 18.5646 17.6317C18.3945 17.6317 18.2369 17.5845 18.0972 17.5084C18.0831 17.7496 17.9867 17.9751 17.8146 18.1473C17.6287 18.3333 17.3812 18.4358 17.1176 18.4358C16.594 18.4358 16.1688 18.0242 16.1381 17.5082C15.9761 17.5958 15.7929 17.6417 15.604 17.6296C15.0889 17.5958 14.6855 17.1507 14.6855 16.6161V12.1845L14.1808 13.0587C13.9886 13.3931 13.6289 13.6007 13.2415 13.6007C13.0527 13.6007 12.8663 13.5512 12.7011 13.4565C12.4955 13.3373 12.3484 13.1459 12.2872 12.917C12.2257 12.6879 12.2575 12.4483 12.3764 12.243C12.3766 12.243 14.0275 9.38408 14.1282 9.20847C14.1402 9.18206 14.1743 9.10548 14.2033 9.04021C14.231 8.97789 14.2548 8.91394 14.2776 8.84965C14.7755 7.44409 16.0082 6.57099 17.495 6.57099C19.4257 6.57099 20.9964 8.2742 20.9964 10.3678L20.9965 15.7793C20.9965 16.0426 20.8942 16.2901 20.7084 16.4762C20.5224 16.6622 20.275 16.7647 20.0113 16.7647L20.0113 16.7647ZM17.495 7.09453C16.2175 7.09453 15.1993 7.81612 14.7711 9.02474C14.7437 9.10149 14.7152 9.17824 14.6819 9.25302C14.5853 9.46966 14.5853 9.46965 14.5581 9.50081L14.5545 9.49769C14.4197 9.75205 14.0192 10.4456 12.8297 12.505C12.7809 12.5895 12.7679 12.6875 12.7928 12.7813C12.8181 12.8751 12.8786 12.9542 12.9624 13.0025C13.2225 13.1519 13.5787 13.0555 13.727 12.7972L14.7206 11.0769C14.7799 10.9744 14.9 10.9241 15.0151 10.9552C15.1296 10.9859 15.2091 11.0897 15.2091 11.2081V16.6163C15.2091 16.8714 15.4016 17.0917 15.6383 17.1072C15.7747 17.1145 15.902 17.0687 15.9976 16.9733C16.0845 16.8863 16.1324 16.7706 16.1324 16.6467V13.1098C16.1324 12.9651 16.2497 12.8479 16.3943 12.8479C16.5389 12.8479 16.6562 12.965 16.6562 13.1098L16.656 17.4507C16.656 17.7052 16.8632 17.9123 17.1177 17.9123C17.2413 17.9123 17.3574 17.8645 17.4445 17.7775C17.5314 17.6905 17.5793 17.5744 17.5793 17.4507V13.1098C17.5793 12.9651 17.6964 12.8479 17.8412 12.8479C17.9858 12.8479 18.1031 12.9649 18.1031 13.1098L18.1029 16.6061V16.6467C18.1029 16.9011 18.3101 17.1082 18.5647 17.1082C18.6882 17.1082 18.804 17.0602 18.8916 16.9729C18.9785 16.8862 19.0264 16.7704 19.0264 16.6466V13.1096C19.0264 12.9649 19.1435 12.8477 19.2883 12.8477C19.4329 12.8477 19.5502 12.9648 19.5502 13.1096L19.5498 15.7794C19.5498 16.0341 19.757 16.2412 20.0113 16.2412C20.1351 16.2412 20.2509 16.1931 20.3378 16.1064C20.4251 16.0191 20.4728 15.903 20.4728 15.7794L20.4729 10.3679C20.4729 8.56316 19.1371 7.09458 17.495 7.09458L17.495 7.09453Z"/>
</mask>
<path d="M20.0113 16.7647C19.8437 16.7647 19.6881 16.7186 19.5499 16.6445V16.6464C19.5499 16.9101 19.4474 17.1578 19.2614 17.3433C19.0754 17.5292 18.828 17.6317 18.5646 17.6317C18.3945 17.6317 18.2369 17.5845 18.0972 17.5084C18.0831 17.7496 17.9867 17.9751 17.8146 18.1473C17.6287 18.3333 17.3812 18.4358 17.1176 18.4358C16.594 18.4358 16.1688 18.0242 16.1381 17.5082C15.9761 17.5958 15.7929 17.6417 15.604 17.6296C15.0889 17.5958 14.6855 17.1507 14.6855 16.6161V12.1845L14.1808 13.0587C13.9886 13.3931 13.6289 13.6007 13.2415 13.6007C13.0527 13.6007 12.8663 13.5512 12.7011 13.4565C12.4955 13.3373 12.3484 13.1459 12.2872 12.917C12.2257 12.6879 12.2575 12.4483 12.3764 12.243C12.3766 12.243 14.0275 9.38408 14.1282 9.20847C14.1402 9.18206 14.1743 9.10548 14.2033 9.04021C14.231 8.97789 14.2548 8.91394 14.2776 8.84965C14.7755 7.44409 16.0082 6.57099 17.495 6.57099C19.4257 6.57099 20.9964 8.2742 20.9964 10.3678L20.9965 15.7793C20.9965 16.0426 20.8942 16.2901 20.7084 16.4762C20.5224 16.6622 20.275 16.7647 20.0113 16.7647L20.0113 16.7647ZM17.495 7.09453C16.2175 7.09453 15.1993 7.81612 14.7711 9.02474C14.7437 9.10149 14.7152 9.17824 14.6819 9.25302C14.5853 9.46966 14.5853 9.46965 14.5581 9.50081L14.5545 9.49769C14.4197 9.75205 14.0192 10.4456 12.8297 12.505C12.7809 12.5895 12.7679 12.6875 12.7928 12.7813C12.8181 12.8751 12.8786 12.9542 12.9624 13.0025C13.2225 13.1519 13.5787 13.0555 13.727 12.7972L14.7206 11.0769C14.7799 10.9744 14.9 10.9241 15.0151 10.9552C15.1296 10.9859 15.2091 11.0897 15.2091 11.2081V16.6163C15.2091 16.8714 15.4016 17.0917 15.6383 17.1072C15.7747 17.1145 15.902 17.0687 15.9976 16.9733C16.0845 16.8863 16.1324 16.7706 16.1324 16.6467V13.1098C16.1324 12.9651 16.2497 12.8479 16.3943 12.8479C16.5389 12.8479 16.6562 12.965 16.6562 13.1098L16.656 17.4507C16.656 17.7052 16.8632 17.9123 17.1177 17.9123C17.2413 17.9123 17.3574 17.8645 17.4445 17.7775C17.5314 17.6905 17.5793 17.5744 17.5793 17.4507V13.1098C17.5793 12.9651 17.6964 12.8479 17.8412 12.8479C17.9858 12.8479 18.1031 12.9649 18.1031 13.1098L18.1029 16.6061V16.6467C18.1029 16.9011 18.3101 17.1082 18.5647 17.1082C18.6882 17.1082 18.804 17.0602 18.8916 16.9729C18.9785 16.8862 19.0264 16.7704 19.0264 16.6466V13.1096C19.0264 12.9649 19.1435 12.8477 19.2883 12.8477C19.4329 12.8477 19.5502 12.9648 19.5502 13.1096L19.5498 15.7794C19.5498 16.0341 19.757 16.2412 20.0113 16.2412C20.1351 16.2412 20.2509 16.1931 20.3378 16.1064C20.4251 16.0191 20.4728 15.903 20.4728 15.7794L20.4729 10.3679C20.4729 8.56316 19.1371 7.09458 17.495 7.09458L17.495 7.09453Z" fill="#4CAF4F"/>
<path d="M20.0113 16.7647V15.8366H23.2903L20.4977 17.5551L20.0113 16.7647ZM19.5499 16.6445H18.6218V15.0937L19.9884 15.8265L19.5499 16.6445ZM19.2614 17.3433L18.6051 16.687L18.606 16.6861L19.2614 17.3433ZM18.0972 17.5084L17.1707 17.4542L17.2561 15.9936L18.5411 16.6933L18.0972 17.5084ZM17.8146 18.1473L18.4712 18.8032L18.4709 18.8036L17.8146 18.1473ZM16.1381 17.5082L15.6968 16.6918L16.9782 15.9992L17.0646 17.4532L16.1381 17.5082ZM15.604 17.6296L15.5445 18.5558L15.5432 18.5557L15.604 17.6296ZM14.6855 12.1845L13.8817 11.7205L15.6136 8.7201V12.1845H14.6855ZM14.1808 13.0587L13.3762 12.5962L13.377 12.5947L14.1808 13.0587ZM12.7011 13.4565L12.2397 14.2618L12.2356 14.2595L12.7011 13.4565ZM12.2872 12.917L13.1836 12.6764L13.1839 12.6774L12.2872 12.917ZM12.3764 12.243L11.5733 11.7779L11.8414 11.3149H12.3764V12.243ZM14.1282 9.20847L14.9735 9.59172L14.9553 9.63191L14.9333 9.67019L14.1282 9.20847ZM14.2033 9.04021L13.3553 8.66308L13.3553 8.66307L14.2033 9.04021ZM14.2776 8.84965L15.1524 9.15953L15.1524 9.15978L14.2776 8.84965ZM20.9964 10.3678L20.0683 10.3678V10.3678H20.9964ZM20.9965 15.7793L21.9246 15.7792V15.7793H20.9965ZM20.7084 16.4762L21.3653 17.1319L21.3647 17.1325L20.7084 16.4762ZM20.0113 16.7647V17.6928H16.7323L19.5249 15.9743L20.0113 16.7647ZM17.495 7.09453V6.16644H18.7254L18.3874 7.3495L17.495 7.09453ZM14.7711 9.02474L15.6459 9.33466L15.6452 9.33666L14.7711 9.02474ZM14.6819 9.25302L15.5297 9.63047L15.5295 9.63096L14.6819 9.25302ZM14.5581 9.50081L15.257 10.1115L14.6498 10.8063L13.9514 10.2032L14.5581 9.50081ZM14.5545 9.49769L13.7344 9.06309L14.2797 8.03413L15.1611 8.79529L14.5545 9.49769ZM12.8297 12.505L13.6334 12.9692L13.633 12.9698L12.8297 12.505ZM12.7928 12.7813L11.8967 13.0226L11.8959 13.0197L12.7928 12.7813ZM12.9624 13.0025L12.5001 13.8073L12.4984 13.8063L12.9624 13.0025ZM13.727 12.7972L12.922 12.3352L12.9233 12.333L13.727 12.7972ZM14.7206 11.0769L13.9169 10.6127L13.9175 10.6118L14.7206 11.0769ZM15.0151 10.9552L14.7749 11.8517L14.7726 11.8511L15.0151 10.9552ZM15.6383 17.1072L15.5893 18.0341L15.5773 18.0333L15.6383 17.1072ZM15.9976 16.9733L16.6539 17.6295L16.6533 17.6301L15.9976 16.9733ZM16.6562 13.1098H17.5843V13.1098L16.6562 13.1098ZM16.656 17.4507H15.7279V17.4507L16.656 17.4507ZM17.4445 17.7775L18.1014 18.4332L18.1001 18.4344L17.4445 17.7775ZM18.1031 13.1098H19.0312V13.1098L18.1031 13.1098ZM18.1029 16.6061H17.1748V16.606L18.1029 16.6061ZM18.8916 16.9729L19.5472 17.6298L19.5466 17.6304L18.8916 16.9729ZM19.5502 13.1096H20.4783V13.1097L19.5502 13.1096ZM19.5498 15.7794H18.6218V15.7793L19.5498 15.7794ZM20.3378 16.1064L20.9941 16.7626L20.9935 16.7633L20.3378 16.1064ZM20.4728 15.7794H19.5447V15.7793L20.4728 15.7794ZM20.4729 10.3679H21.401V10.3679L20.4729 10.3679ZM17.495 7.09458V8.02268H16.2646L16.6026 6.83962L17.495 7.09458ZM20.0113 17.6928C19.6696 17.6928 19.3645 17.5982 19.1113 17.4624L19.9884 15.8265C20.0004 15.833 20.008 15.8354 20.0111 15.8362C20.0137 15.8369 20.0133 15.8366 20.0113 15.8366V17.6928ZM20.478 16.6445V16.6464H18.6218V16.6445H20.478ZM20.478 16.6464C20.478 17.1555 20.2782 17.64 19.9168 18.0004L18.606 16.6861C18.6126 16.6795 18.6159 16.6738 18.6178 16.6692C18.6198 16.6646 18.6218 16.6574 18.6218 16.6464H20.478ZM19.9177 17.9995C19.5575 18.3597 19.0739 18.5598 18.5646 18.5598V16.7036C18.5752 16.7036 18.5822 16.7017 18.587 16.6997C18.5917 16.6978 18.5979 16.6943 18.6051 16.687L19.9177 17.9995ZM18.5646 18.5598C18.2184 18.5598 17.9095 18.463 17.6533 18.3235L18.5411 16.6933C18.5531 16.6999 18.5608 16.7024 18.5638 16.7032C18.5664 16.704 18.5662 16.7036 18.5646 16.7036V18.5598ZM19.0237 17.5626C18.997 18.0194 18.8117 18.4624 18.4712 18.8032L17.158 17.4914C17.1615 17.488 17.1635 17.4849 17.1652 17.4811C17.167 17.4769 17.1699 17.4684 17.1707 17.4542L19.0237 17.5626ZM18.4709 18.8036C18.1107 19.1638 17.6271 19.3639 17.1176 19.3639V17.5077C17.1284 17.5077 17.1355 17.5057 17.1403 17.5038C17.145 17.5018 17.1511 17.4983 17.1584 17.4911L18.4709 18.8036ZM17.1176 19.3639C16.093 19.3639 15.2709 18.5597 15.2117 17.5633L17.0646 17.4532C17.0655 17.469 17.072 17.4828 17.0834 17.4937C17.089 17.4991 17.0946 17.5025 17.0995 17.5045C17.1039 17.5062 17.1094 17.5077 17.1176 17.5077V19.3639ZM16.5794 18.3247C16.2796 18.4867 15.9242 18.5802 15.5445 18.5558L15.6635 16.7034C15.6635 16.7034 15.6655 16.7036 15.6704 16.7025C15.6756 16.7012 15.6847 16.6983 15.6968 16.6918L16.5794 18.3247ZM15.5432 18.5557C14.5128 18.4881 13.7574 17.6118 13.7574 16.6161H15.6136C15.6136 16.6475 15.6249 16.6716 15.6392 16.6874C15.6531 16.7028 15.6626 16.7034 15.6647 16.7035L15.5432 18.5557ZM13.7574 16.6161V12.1845H15.6136V16.6161H13.7574ZM15.4893 12.6484L14.9846 13.5227L13.377 12.5947L13.8817 11.7205L15.4893 12.6484ZM14.9855 13.5212C14.6269 14.1451 13.9593 14.5288 13.2415 14.5288V12.6726C13.2984 12.6726 13.3504 12.641 13.3762 12.5962L14.9855 13.5212ZM13.2415 14.5288C12.8905 14.5288 12.545 14.4368 12.2397 14.2618L13.1626 12.6513C13.1875 12.6656 13.2149 12.6726 13.2415 12.6726V14.5288ZM12.2356 14.2595C11.819 14.0179 11.5157 13.6248 11.3906 13.1566L13.1839 12.6774C13.183 12.6743 13.1807 12.6687 13.1762 12.6628C13.1718 12.6571 13.1677 12.6542 13.1666 12.6536L12.2356 14.2595ZM11.3909 13.1576C11.2653 12.6897 11.331 12.1963 11.5733 11.7779L13.1796 12.708C13.1809 12.7057 13.1832 12.7005 13.1842 12.693C13.1852 12.6854 13.1844 12.6794 13.1836 12.6764L11.3909 13.1576ZM12.3764 11.3149C11.9212 11.4342 11.5804 11.7658 11.5779 11.7701C11.577 11.7715 11.5757 11.7737 11.5753 11.7743C11.5751 11.7747 11.5747 11.7754 11.5746 11.7756C11.5745 11.7758 11.5743 11.7761 11.5743 11.7761C11.5742 11.7764 11.5742 11.7763 11.5745 11.7757C11.5752 11.7746 11.5762 11.7728 11.5778 11.7701C11.5808 11.7648 11.5854 11.7569 11.5915 11.7465C11.6035 11.7255 11.6213 11.6948 11.644 11.6556C11.6893 11.5771 11.7542 11.4648 11.8324 11.3294C11.9887 11.0586 12.1982 10.6958 12.4109 10.3275C12.8369 9.58965 13.2737 8.833 13.3231 8.74674L14.9333 9.67019C14.8821 9.75954 14.443 10.5201 14.0184 11.2556C13.8057 11.624 13.5961 11.9869 13.4397 12.2577C13.3616 12.3931 13.2966 12.5055 13.2513 12.584C13.2286 12.6233 13.2108 12.6541 13.1986 12.6752C13.1925 12.6857 13.1878 12.6939 13.1846 12.6994C13.183 12.7022 13.1817 12.7044 13.1807 12.7061C13.1803 12.7069 13.1797 12.7078 13.1792 12.7088C13.179 12.7091 13.1784 12.7101 13.1777 12.7113C13.1772 12.7121 13.1759 12.7143 13.175 12.7158C13.1725 12.7201 12.8317 13.0517 12.3764 13.1711V11.3149ZM13.283 8.82521C13.2932 8.80268 13.3255 8.73003 13.3553 8.66308L15.0513 9.41734C15.0231 9.48093 14.9872 9.56145 14.9735 9.59172L13.283 8.82521ZM13.3553 8.66307C13.3682 8.63407 13.3825 8.59701 13.4029 8.53952L15.1524 9.15978C15.1272 9.23087 15.0939 9.32172 15.0513 9.41735L13.3553 8.66307ZM13.4028 8.53977C14.0314 6.76516 15.6135 5.64289 17.495 5.64289V7.49908C16.4029 7.49908 15.5196 8.12302 15.1524 9.15953L13.4028 8.53977ZM17.495 5.64289C20.0076 5.64289 21.9245 7.83383 21.9245 10.3678H20.0683C20.0683 8.71457 18.8438 7.49908 17.495 7.49908V5.64289ZM21.9245 10.3677L21.9246 15.7792L20.0685 15.7793L20.0683 10.3678L21.9245 10.3677ZM21.9246 15.7793C21.9246 16.2882 21.725 16.7715 21.3653 17.1319L20.0515 15.8206C20.0589 15.8132 20.0625 15.807 20.0645 15.8021C20.0665 15.7972 20.0685 15.7901 20.0685 15.7793H21.9246ZM21.3647 17.1325C21.0044 17.4928 20.5208 17.6928 20.0113 17.6928V15.8366C20.0222 15.8366 20.0293 15.8346 20.0341 15.8327C20.0388 15.8307 20.0449 15.8272 20.0521 15.82L21.3647 17.1325ZM19.5249 15.9743L19.5249 15.9743L20.4977 17.5551L20.4977 17.5551L19.5249 15.9743ZM17.495 8.02262C16.6126 8.02262 15.9435 8.49467 15.6459 9.33466L13.8963 8.71482C14.455 7.13757 15.8224 6.16644 17.495 6.16644V8.02262ZM15.6452 9.33666C15.6159 9.41876 15.5778 9.52244 15.5297 9.63047L13.834 8.87556C13.8525 8.83403 13.8715 8.78422 13.897 8.71282L15.6452 9.33666ZM15.5295 9.63096C15.487 9.72629 15.4514 9.80679 15.4242 9.86131C15.4073 9.89516 15.3799 9.94731 15.3402 10.0051C15.2999 10.0636 15.2602 10.1078 15.257 10.1115L13.8592 8.89016C13.8613 8.88766 13.8606 8.88847 13.8595 8.88975C13.8581 8.8914 13.8545 8.8956 13.8498 8.90137C13.8449 8.90735 13.8387 8.91507 13.8317 8.92424C13.8247 8.9335 13.8176 8.94335 13.8104 8.95374C13.7959 8.9749 13.7847 8.99343 13.7767 9.00745C13.7693 9.02053 13.7648 9.02959 13.7637 9.03163C13.7627 9.03373 13.7633 9.03249 13.7665 9.02574C13.7695 9.0192 13.7739 9.00978 13.7801 8.99606C13.7862 8.98247 13.7936 8.96605 13.8027 8.94576C13.8117 8.9255 13.8221 8.90228 13.8342 8.87507L15.5295 9.63096ZM13.9514 10.2032L13.9478 10.2001L15.1611 8.79529L15.1647 8.79841L13.9514 10.2032ZM15.3745 9.9323C15.2292 10.2064 14.8146 10.9241 13.6334 12.9692L12.0261 12.0408C13.2238 9.96703 13.6101 9.29772 13.7344 9.06309L15.3745 9.9323ZM13.633 12.9698C13.7073 12.8415 13.728 12.6867 13.6898 12.5429L11.8959 13.0197C11.8078 12.6884 11.8544 12.3374 12.0264 12.0402L13.633 12.9698ZM13.689 12.54C13.6508 12.3982 13.557 12.2741 13.4264 12.1988L12.4984 13.8063C12.2003 13.6342 11.9854 13.3521 11.8967 13.0226L13.689 12.54ZM13.4247 12.1978C13.319 12.1371 13.2163 12.1375 13.1453 12.1566C13.0747 12.1756 12.984 12.2272 12.922 12.3352L14.5319 13.2592C14.1274 13.964 13.203 14.2111 12.5001 13.8073L13.4247 12.1978ZM12.9233 12.333L13.9169 10.6127L15.5243 11.5411L14.5306 13.2614L12.9233 12.333ZM13.9175 10.6118C14.1856 10.1489 14.7327 9.91733 15.2576 10.0594L14.7726 11.8511C15.0673 11.9308 15.3743 11.7999 15.5237 11.5421L13.9175 10.6118ZM15.2553 10.0588C15.776 10.1983 16.1372 10.6701 16.1372 11.2081H14.281C14.281 11.5093 14.4832 11.7736 14.7749 11.8517L15.2553 10.0588ZM16.1372 11.2081V16.6163H14.281V11.2081H16.1372ZM16.1372 16.6163C16.1372 16.5105 16.098 16.4144 16.0337 16.3408C15.9695 16.2673 15.8562 16.1915 15.6992 16.1811L15.5773 18.0333C14.7961 17.9819 14.281 17.3013 14.281 16.6163H16.1372ZM15.6873 16.1804C15.5777 16.1746 15.4437 16.2148 15.3419 16.3164L16.6533 17.6301C16.3603 17.9226 15.9718 18.0543 15.5893 18.034L15.6873 16.1804ZM15.3413 16.317C15.2533 16.4051 15.2043 16.5257 15.2043 16.6467H17.0605C17.0605 17.0154 16.9158 17.3676 16.6539 17.6295L15.3413 16.317ZM15.2043 16.6467V13.1098H17.0605V16.6467H15.2043ZM15.2043 13.1098C15.2043 12.4525 15.7371 11.9198 16.3943 11.9198V13.776C16.7622 13.776 17.0605 13.4777 17.0605 13.1098H15.2043ZM16.3943 11.9198C17.0511 11.9198 17.5843 12.452 17.5843 13.1098H15.7281C15.7281 13.4779 16.0267 13.776 16.3943 13.776V11.9198ZM17.5843 13.1098L17.5841 17.4507L15.7279 17.4507L15.7281 13.1097L17.5843 13.1098ZM17.5841 17.4507C17.5841 17.1926 17.3757 16.9842 17.1177 16.9842V18.8404C16.3506 18.8404 15.7279 18.2178 15.7279 17.4507H17.5841ZM17.1177 16.9842C16.9969 16.9842 16.8768 17.0329 16.7889 17.1206L18.1001 18.4344C17.8381 18.696 17.4858 18.8404 17.1177 18.8404V16.9842ZM16.7876 17.1219C16.6999 17.2098 16.6512 17.3299 16.6512 17.4507H18.5074C18.5074 17.8188 18.363 18.1711 18.1014 18.4332L16.7876 17.1219ZM16.6512 17.4507V13.1098H18.5074V17.4507H16.6512ZM16.6512 13.1098C16.6512 12.4529 17.1834 11.9198 17.8412 11.9198V13.7759C18.2094 13.7759 18.5074 13.4773 18.5074 13.1098H16.6512ZM17.8412 11.9198C18.498 11.9198 19.0312 12.452 19.0312 13.1098H17.175C17.175 13.4779 17.4737 13.7759 17.8412 13.7759V11.9198ZM19.0312 13.1098L19.031 16.6061L17.1748 16.606L17.175 13.1097L19.0312 13.1098ZM19.031 16.6061V16.6467H17.1748V16.6061H19.031ZM19.031 16.6467C19.031 16.3881 18.8222 16.1801 18.5647 16.1801V18.0363C17.7979 18.0363 17.1748 17.4141 17.1748 16.6467H19.031ZM18.5647 16.1801C18.4414 16.1801 18.322 16.2303 18.2366 16.3154L19.5466 17.6304C19.286 17.89 18.935 18.0363 18.5647 18.0363V16.1801ZM18.2359 16.316C18.1472 16.4046 18.0983 16.5257 18.0983 16.6466H19.9545C19.9545 17.015 19.8098 17.3677 19.5472 17.6298L18.2359 16.316ZM18.0983 16.6466V13.1096H19.9545V16.6466H18.0983ZM18.0983 13.1096C18.0983 12.4527 18.6305 11.9196 19.2883 11.9196V13.7758C19.6564 13.7758 19.9545 13.4771 19.9545 13.1096H18.0983ZM19.2883 11.9196C19.9451 11.9196 20.4783 12.4518 20.4783 13.1096H18.6221C18.6221 13.4777 18.9207 13.7758 19.2883 13.7758V11.9196ZM20.4783 13.1097L20.4779 15.7795L18.6218 15.7793L18.6221 13.1095L20.4783 13.1097ZM20.4779 15.7794C20.4779 15.5219 20.27 15.3131 20.0113 15.3131V17.1693C19.244 17.1693 18.6218 16.5462 18.6218 15.7794H20.4779ZM20.0113 15.3131C19.8896 15.3131 19.7695 15.3624 19.6822 15.4495L20.9935 16.7633C20.7323 17.0239 20.3807 17.1693 20.0113 17.1693V15.3131ZM19.6816 15.4501C19.5932 15.5385 19.5447 15.6591 19.5447 15.7794H21.4009C21.4009 16.1469 21.2569 16.4998 20.9941 16.7626L19.6816 15.4501ZM19.5447 15.7793L19.5449 10.3679L21.401 10.3679L21.4009 15.7794L19.5447 15.7793ZM19.5449 10.3679C19.5449 8.99115 18.5438 8.02268 17.495 8.02268V6.16649C19.7303 6.16649 21.401 8.13517 21.401 10.3679H19.5449ZM16.6026 6.83962L16.6026 6.83956L18.3874 7.3495L18.3874 7.34955L16.6026 6.83962Z" fill="#4CAF4F" mask="url(#path-1-inside-1_211_2338)"/>
<path d="M11.5287 21.7395C11.4044 21.8143 11.2437 21.7739 11.1694 21.6498C11.095 21.5258 11.1353 21.3649 11.2591 21.2905M11.5287 21.7395L13.7913 18.695C14.0099 18.5636 14.2982 18.6154 14.433 18.8104M11.5287 21.7395L14.5616 19.92H14.5618L14.5621 19.9198M11.5287 21.7395L15.7261 20.2981C15.8321 20.2345 15.9068 20.1338 15.9367 20.0143M11.2591 21.2905L14.2922 19.471C14.3981 19.4073 14.4731 19.3065 14.5029 19.1873M11.2591 21.2905L11.2898 21.3417L11.3938 21.515L11.3941 21.5154L11.4409 21.5935L11.4979 21.6884L11.498 21.6883L11.498 21.6883L11.4983 21.6882M11.2591 21.2905L11.2899 21.3416M14.5029 19.1873C14.5357 19.0564 14.5108 18.9226 14.433 18.8104M14.5029 19.1873L14.5778 19.206L14.5706 19.0521C14.5657 18.9462 14.5347 18.8522 14.4823 18.7767L14.4821 18.7765L14.433 18.8104M14.5029 19.1873L14.5778 19.206L14.5851 19.3648L14.4333 19.4559H14.4331L14.3229 19.5221L14.3229 19.5221L14.3228 19.5221L11.29 21.3416M14.433 18.8104L14.4821 18.7764L12.2428 22.9289C12.338 22.8716 12.3695 22.7478 12.3118 22.6516C12.2545 22.5563 12.1303 22.5249 12.0345 22.5823L15.0674 20.7629C15.1371 20.721 15.2101 20.6895 15.2847 20.6677L15.7551 20.3465L15.7552 20.3465L15.781 20.3288C15.8914 20.2535 15.9644 20.149 15.9944 20.0288L15.9945 20.0287L15.9367 20.0143M11.29 21.3416C11.3855 21.2845 11.5097 21.3154 11.5673 21.4109C11.5674 21.4111 11.5675 21.4113 11.5676 21.4115C11.6249 21.5076 11.5933 21.631 11.4983 21.6882M11.29 21.3416C11.29 21.3416 11.2899 21.3416 11.2899 21.3416M11.29 21.3416L11.2899 21.3416M11.4983 21.6882L14.5309 19.8689L14.531 19.8689L14.5311 19.8688C14.5312 19.8687 14.5313 19.8687 14.5314 19.8686L14.5616 19.919L14.5618 19.9193L14.5621 19.9198M11.4983 21.6882L11.3943 21.5152L11.3941 21.5149L11.3589 21.4564L11.2899 21.3416M14.5621 19.9198V19.8493C14.6206 19.811 14.6742 19.7666 14.722 19.717L15.2212 19.4564L15.2212 19.4564L15.2489 19.442C15.3291 19.4001 15.4101 19.3805 15.4869 19.3805C15.5285 19.3805 15.5714 19.3857 15.615 19.3965C15.6151 19.3965 15.6151 19.3965 15.6151 19.3965C15.6153 19.3965 15.6154 19.3966 15.6156 19.3966L15.7133 19.0042M14.5621 19.9198L15.2512 19.5064C15.3568 19.4431 15.4805 19.4246 15.6007 19.4544C15.7202 19.4842 15.8211 19.559 15.8845 19.6648C15.948 19.7707 15.9665 19.8949 15.9367 20.0143M15.7133 19.0042C15.7132 19.0042 15.7132 19.0042 15.7132 19.0042M15.7133 19.0042C15.9524 19.064 16.1557 19.2149 16.2824 19.4259L16.3335 19.3953M15.7133 19.0042L15.7277 18.9463M15.7132 19.0042L15.6152 19.3965C15.751 19.4304 15.8635 19.5138 15.9355 19.634C15.9355 19.634 15.9356 19.6341 15.9356 19.6342C15.9356 19.6342 15.9356 19.6342 15.9356 19.6342C16.0079 19.7549 16.0283 19.8934 15.9945 20.0286L15.9945 20.0287L15.9367 20.0143M15.7132 19.0042C15.7132 19.0042 15.7131 19.0042 15.7131 19.0042L15.7125 19.004C15.6408 18.9862 15.5681 18.9771 15.4958 18.9765M15.7132 19.0042L15.7277 18.9463M15.2756 21.1095L15.5372 20.9526L15.807 21.1117C15.8877 21.1594 15.9488 21.2191 15.9901 21.2881L15.9902 21.2883C15.9903 21.2884 15.9903 21.2884 15.9904 21.2885L15.9395 21.3191M15.2756 21.1095L16.0494 21.6832C16.0831 21.5475 16.0626 21.4091 15.9904 21.2886L15.9395 21.3191M15.2756 21.1095L15.3063 21.1607M15.2756 21.1095L15.2756 21.1096L15.3063 21.1607M15.9395 21.3191C15.8084 21.1009 15.5242 21.0299 15.3063 21.1607M15.9395 21.3191C16.0031 21.4249 16.0216 21.5492 15.9918 21.6688L15.3063 21.1607M16.3817 21.0388C16.3839 21.0424 16.3861 21.0461 16.3883 21.0497L16.3817 21.0388ZM16.3817 21.0388C16.366 21.0511 16.3501 21.063 16.3339 21.0746C16.335 21.0764 16.336 21.0781 16.3371 21.0799L16.3817 21.0388ZM16.3094 20.3311C16.3429 20.267 16.369 20.1985 16.3869 20.1268L16.3094 20.3311ZM16.3094 20.3311C16.3261 20.3414 16.3426 20.3521 16.3589 20.3632C16.3962 20.2939 16.4251 20.2196 16.4447 20.1412C16.5085 19.8861 16.4689 19.6213 16.3335 19.3953M16.3094 20.3311L16.3869 20.1267C16.4467 19.8876 16.409 19.6373 16.2826 19.4263L16.2825 19.4261C16.2824 19.426 16.2824 19.426 16.2824 19.426L16.3335 19.3953M16.3335 19.3953C16.1982 19.1697 15.983 19.0101 15.7277 18.9463M15.7277 18.9463L15.4906 18.9165M15.4906 18.9165C15.4928 18.9365 15.4945 18.9565 15.4958 18.9765M15.4906 18.9165C15.4894 18.9165 15.4882 18.9165 15.4869 18.9165C15.33 18.9165 15.1758 18.9567 15.0342 19.0306M15.4906 18.9165L15.0342 19.0306M15.4958 18.9765C15.4966 18.9874 15.4972 18.9982 15.4977 19.0091L15.4869 19.0096L15.1988 19.023M15.4958 18.9765C15.4929 18.9765 15.4899 18.9764 15.4869 18.9764C15.389 18.9765 15.2919 18.9922 15.1988 19.023M15.1988 19.023L15.0342 19.0306M15.1988 19.023C15.1516 19.0386 15.1054 19.0581 15.0607 19.0814C15.0445 19.0899 15.0284 19.0989 15.0126 19.1084L15.0125 19.1085L14.9795 19.1283M15.0342 19.0306L14.7697 19.2541L14.7698 19.2541L14.9531 19.3C14.9531 19.3 14.953 19.3 14.953 19.3001C14.9673 19.243 14.9761 19.1855 14.9795 19.1283M15.0342 19.0306L14.9633 18.8949M15.0342 19.0306C15.0268 18.8725 14.9851 18.7168 14.9051 18.5778C14.887 18.5859 14.8689 18.5944 14.8511 18.6032M14.9795 19.1283C14.9813 19.0964 14.9816 19.0647 14.9801 19.0331C14.978 18.9866 14.9724 18.9404 14.9633 18.8949M14.9795 19.1283L14.9633 18.8949M14.9633 18.8949L14.8194 18.6192C14.8299 18.6138 14.8405 18.6084 14.8511 18.6032M14.9633 18.8949L14.8146 18.5462C14.8275 18.5649 14.8396 18.5839 14.8511 18.6032M14.9633 18.8949C14.9429 18.7929 14.9052 18.6944 14.8511 18.6032M16.0427 20.712L16.122 20.5776C16.0877 20.6097 16.0507 20.6394 16.0114 20.6662C15.9963 20.6765 15.9809 20.6865 15.9651 20.696L15.9648 20.6961L15.9313 20.7162L16.0427 20.712ZM8.63191 18.5524L8.57916 18.5246C8.56946 18.5421 8.54531 18.5856 8.50964 18.6499C8.50081 18.6658 8.49127 18.683 8.48108 18.7013C8.49926 18.7104 8.5176 18.7184 8.53597 18.7253C8.56734 18.6688 8.59932 18.6112 8.63191 18.5524ZM12.7789 23.8231C12.7788 23.8231 12.7788 23.8231 12.7787 23.8231L12.7789 23.8231Z" fill="#4CAF4F" stroke="#4CAF4F" stroke-width="0.928093"/>
<path d="M24.4807 19.3886L24.4806 19.3886L24.4807 19.3886ZM24.4807 19.3886C24.3834 19.2144 24.3873 18.9999 24.4903 18.8282L24.4807 19.3886ZM18.739 18.9763C18.6665 18.9769 18.5936 18.9861 18.5217 19.0041L18.739 18.9763ZM18.739 18.9763C18.7404 18.9564 18.7422 18.9364 18.7443 18.9164L18.739 18.9763ZM24.063 19.714L24.0236 19.643L24.063 19.714ZM22.9448 21.3415C22.9447 21.3415 22.9446 21.3414 22.9445 21.3413L22.9447 21.3414L22.9448 21.3415ZM21.456 23.8235C21.4559 23.8234 21.4558 23.8233 21.4557 23.8233L21.456 23.8235ZM21.4555 23.8232L21.4556 23.8233L21.4555 23.8232Z" fill="#4CAF4F" stroke="#4CAF4F" stroke-width="0.928093"/>
</svg>
