<svg width="35" height="35" viewBox="0 0 35 35" fill="none" xmlns="http://www.w3.org/2000/svg">
<path d="M17.3728 7.92358C14.8869 7.92358 12.8632 9.96577 12.8632 12.4622C12.8632 14.0415 13.6742 15.4359 14.8988 16.2487C13.4197 16.7432 12.1399 17.6675 11.2013 18.8767C10.6823 18.4775 10.1024 18.1565 9.47729 17.9265C10.4252 17.2227 11.0447 16.0922 11.0447 14.8216C11.0447 12.7043 9.33233 10.9711 7.22789 10.9711C5.12346 10.9711 3.41107 12.7043 3.41107 14.8216C3.41107 16.0929 4.03106 17.2239 4.97981 17.9277C2.46799 18.8546 0.674072 21.2813 0.674072 24.1373V26.1435C0.674329 26.2964 0.735505 26.443 0.843975 26.5507C0.952444 26.6586 1.09922 26.7188 1.25216 26.7183H10.0539C10.0753 26.7206 10.0966 26.7218 10.1179 26.7216H24.6281C24.6494 26.7218 24.671 26.7206 24.6921 26.7183H33.4945C33.8109 26.717 34.0672 26.4602 34.068 26.1435V24.1373C34.068 21.2813 32.2772 18.8546 29.7667 17.9274C30.7154 17.2239 31.3354 16.0927 31.3354 14.8214C31.3354 12.7041 29.623 10.9708 27.5186 10.9708C25.4142 10.9708 23.7017 12.7041 23.7017 14.8214C23.7017 16.0919 24.3215 17.2226 25.2694 17.9262C24.643 18.1568 24.0629 18.4788 23.5432 18.879C22.605 17.6691 21.3269 16.7435 19.8479 16.2487C21.0722 15.4359 21.8835 14.0415 21.8835 12.4622C21.8835 9.96577 19.8587 7.92358 17.3729 7.92358H17.3728ZM17.3728 9.07513C19.232 9.07513 20.7307 10.584 20.7307 12.4622C20.7307 14.3257 19.2553 15.8199 17.4167 15.8439C17.4021 15.8439 17.3877 15.8418 17.3728 15.8418C17.3579 15.8418 17.3437 15.8439 17.3288 15.8439C15.4902 15.8202 14.0158 14.3258 14.0158 12.4622C14.0158 10.5837 15.5133 9.07513 17.3725 9.07513H17.3728ZM7.22796 12.1226C8.70312 12.1226 9.89323 13.3199 9.89323 14.8216C9.89323 16.3132 8.71852 17.5053 7.25724 17.5215C7.24747 17.5215 7.23796 17.5205 7.22794 17.5205C7.21817 17.5205 7.20866 17.5215 7.19864 17.5215C5.73735 17.5053 4.56264 16.3129 4.56264 14.8216C4.56264 13.3199 5.75275 12.1226 7.22792 12.1226H7.22796ZM27.5182 12.1226C28.9934 12.1226 30.1835 13.3199 30.1835 14.8216C30.1835 16.3132 29.0088 17.5053 27.5475 17.5215C27.5377 17.5215 27.5282 17.5205 27.5182 17.5205C27.5084 17.5205 27.4989 17.5215 27.4889 17.5215C26.0276 17.5053 24.8529 16.3129 24.8529 14.8216C24.8529 13.3199 26.043 12.1226 27.5182 12.1226H27.5182ZM17.3287 16.9953C17.3433 16.9956 17.3577 16.9974 17.3726 16.9974C17.3873 16.9974 17.4017 16.9953 17.4166 16.9953C21.1038 17.019 24.0548 19.9953 24.0548 23.721L24.0545 25.5697H10.6913V23.721C10.6913 19.995 13.6414 17.019 17.3282 16.9953H17.3287ZM7.18387 18.6744C7.19852 18.6746 7.21292 18.6764 7.22782 18.6764C7.24273 18.6764 7.25687 18.6744 7.27178 18.6744C8.51894 18.6844 9.65713 19.1144 10.5634 19.8339C9.91491 20.9813 9.53987 22.3058 9.53987 23.7214V25.5656H1.82516V24.1372C1.82516 21.1093 4.2059 18.698 7.18373 18.6741L7.18387 18.6744ZM27.4741 18.6744C27.489 18.6746 27.5032 18.6764 27.5181 18.6764C27.533 18.6764 27.5471 18.6744 27.562 18.6744C30.5399 18.698 32.9206 21.1096 32.9206 24.1375V25.5656H25.202L25.2017 23.7214C25.2017 22.3066 24.8277 20.9831 24.1805 19.8359C25.087 19.1154 26.226 18.6844 27.4742 18.6744H27.4741Z" fill="#103E13"/>
</svg>
