<svg width="34" height="35" viewBox="0 0 34 35" fill="none" xmlns="http://www.w3.org/2000/svg">
<g clip-path="url(#clip0_211_2046)">
<path fill-rule="evenodd" clip-rule="evenodd" d="M9.97901 3.67969C13.8233 3.67969 16.9397 6.79609 16.9397 10.6404V3.67969H23.9004C27.7446 3.67969 30.8611 6.79609 30.8611 10.6404C30.8611 14.4846 27.7446 17.6011 23.9004 17.6011C27.7446 17.6011 30.8611 20.7175 30.8611 24.5618C30.8611 26.4706 30.0927 28.2 28.8484 29.4575L28.8224 29.4837L28.7993 29.5067C27.5415 30.7528 25.8108 31.5225 23.9004 31.5225C22.003 31.5225 20.2829 30.7633 19.0272 29.5321C19.0109 29.516 18.9946 29.4999 18.9784 29.4837C18.9632 29.4685 18.948 29.4532 18.9329 29.4378C17.7001 28.182 16.9397 26.4606 16.9397 24.5618C16.9397 28.406 13.8233 31.5225 9.97901 31.5225C6.13472 31.5225 3.01831 28.406 3.01831 24.5618V17.6011H9.97901C6.13472 17.6011 3.01831 14.4846 3.01831 10.6404C3.01831 6.79609 6.13472 3.67969 9.97901 3.67969ZM15.5476 10.6404C15.5476 13.7158 13.0544 16.2089 9.97901 16.2089V5.07183C13.0544 5.07183 15.5476 7.56495 15.5476 10.6404ZM29.469 24.5618C29.469 21.4863 26.9758 18.9932 23.9004 18.9932C20.825 18.9932 18.3318 21.4863 18.3318 24.5618H29.469ZM4.41045 18.9932V24.5618C4.41045 27.6372 6.90358 30.1303 9.97901 30.1303C13.0544 30.1303 15.5476 27.6372 15.5476 24.5618V18.9932H4.41045ZM18.3318 16.2089V5.07183H23.9004C26.9758 5.07183 29.469 7.56495 29.469 10.6404C29.469 13.7158 26.9758 16.2089 23.9004 16.2089H18.3318Z" fill="#263238"/>
</g>
<defs>
<clipPath id="clip0_211_2046">
<rect width="27.8428" height="27.8428" fill="white" transform="translate(3.01831 3.67969)"/>
</clipPath>
</defs>
</svg>
