<svg width="38" height="35" viewBox="0 0 38 35" fill="none" xmlns="http://www.w3.org/2000/svg">
<rect x="0.893066" y="0.919434" width="33.4113" height="33.4113" rx="5.56856" fill="#F5F7FA"/>
<g clip-path="url(#clip0_211_2541)">
<path d="M9.48474 10.5577C8.07121 10.5577 6.71559 11.1193 5.71609 12.1188L2.4541 15.3808C1.45459 16.3803 0.893066 17.7359 0.893066 19.1494C0.893066 22.093 3.27926 24.4791 6.22278 24.4791C7.63631 24.4791 8.99193 23.9176 9.99144 22.9181L12.2478 20.6617C12.2478 20.6617 12.2478 20.6618 12.2478 20.6617L18.822 14.0876C19.2993 13.6102 19.9468 13.342 20.6219 13.342C21.7521 13.342 22.7103 14.0786 23.0425 15.098L25.1173 13.0232C24.1708 11.5407 22.5111 10.5577 20.6219 10.5577C19.2083 10.5577 17.8527 11.1193 16.8532 12.1188L8.02267 20.9493C7.54531 21.4267 6.89787 21.6949 6.22278 21.6949C4.81697 21.6949 3.67734 20.5552 3.67734 19.1494C3.67734 18.4743 3.94552 17.8269 4.42288 17.3495L7.68485 14.0876C8.16221 13.6102 8.80965 13.342 9.48474 13.342C10.615 13.342 11.5732 14.0787 11.9054 15.0981L13.9802 13.0232C13.0337 11.5408 11.3741 10.5577 9.48474 10.5577Z" fill="#394149"/>
<path d="M19.1599 20.9493C18.6825 21.4267 18.0351 21.6949 17.36 21.6949C16.2299 21.6949 15.2718 20.9584 14.9395 19.9392L12.8647 22.014C13.8113 23.4962 15.4709 24.4791 17.36 24.4791C18.7735 24.4791 20.1292 23.9176 21.1287 22.9181L29.9592 14.0876C30.4366 13.6102 31.084 13.342 31.7591 13.342C33.1649 13.342 34.3045 14.4816 34.3045 15.8875C34.3045 16.5625 34.0363 17.21 33.559 17.6873L30.297 20.9493C29.8197 21.4267 29.1722 21.6949 28.4971 21.6949C27.3669 21.6949 26.4088 20.9583 26.0765 19.939L24.0018 22.0138C24.9483 23.4962 26.6079 24.4791 28.4971 24.4791C29.9107 24.4791 31.2663 23.9176 32.2658 22.9181L35.5277 19.6561C36.5273 18.6566 37.0888 17.301 37.0888 15.8875C37.0888 12.9439 34.7026 10.5577 31.7591 10.5577C30.3456 10.5577 28.9899 11.1193 27.9904 12.1188L19.1599 20.9493Z" fill="#394149"/>
</g>
<defs>
<clipPath id="clip0_211_2541">
<rect width="36.1956" height="13.9214" fill="white" transform="translate(0.893066 10.5577)"/>
</clipPath>
</defs>
</svg>
