<svg width="34" height="35" viewBox="0 0 34 35" fill="none" xmlns="http://www.w3.org/2000/svg">
<rect x="0.0922852" y="0.919434" width="33.4113" height="33.4113" rx="5.56856" fill="#F5F7FA"/>
<g clip-path="url(#clip0_211_2514)">
<path fill-rule="evenodd" clip-rule="evenodd" d="M7.12121 10.6376L0.17041 17.5185C1.5607 18.8948 3.14888 20.0547 4.88046 20.9622C5.35908 22.219 6.1093 23.3977 7.1311 24.4092C10.9754 28.2148 17.2082 28.2148 21.0525 24.4092C22.0743 23.3977 22.8245 22.219 23.3032 20.9621C25.0347 20.0547 26.6229 18.8948 28.0132 17.5185L21.068 10.6432C21.0629 10.638 21.0577 10.6329 21.0525 10.6277C17.2082 6.82209 10.9754 6.82209 7.1311 10.6277C7.12781 10.631 7.12451 10.6343 7.12121 10.6376ZM20.3874 22.2036C18.3618 22.8804 16.2355 23.2269 14.0918 23.2269C11.9481 23.2269 9.82183 22.8804 7.79627 22.2036C8.01574 22.4919 8.25804 22.7685 8.52324 23.0311C11.5987 26.0756 16.5849 26.0756 19.6604 23.0311C19.9256 22.7685 20.1679 22.4919 20.3874 22.2036ZM8.66601 11.8681C9.18827 12.2096 9.74359 12.5019 10.3247 12.7402C11.519 13.2299 12.7991 13.482 14.0918 13.482C15.3845 13.482 16.6646 13.2299 17.8589 12.7402C18.44 12.5019 18.9953 12.2096 19.5177 11.868C16.4806 9.0073 11.703 9.00731 8.66601 11.8681Z" fill="#3B4158"/>
</g>
<defs>
<clipPath id="clip0_211_2514">
<rect width="27.8428" height="19.4899" fill="white" transform="translate(0.17041 7.7735)"/>
</clipPath>
</defs>
</svg>
