<svg width="39" height="35" viewBox="0 0 39 35" fill="none" xmlns="http://www.w3.org/2000/svg">
<g clip-path="url(#clip0_211_2080)">
<path d="M38.8873 14.4803C38.8913 14.4513 38.8913 14.4219 38.8873 14.3929C38.8911 14.3692 38.8911 14.3451 38.8873 14.3214L38.6037 12.2801C38.5628 12.0359 38.4534 11.8076 38.2877 11.6208L38.2391 11.5652L38.15 11.4779L33.2402 7.33167L33.3779 7.46671C33.2653 7.33454 33.1238 7.22882 32.964 7.15734C32.8041 7.08586 32.63 7.05043 32.4543 7.05367H30.9635C30.7211 7.04897 30.4843 7.12453 30.2911 7.26814C30.0882 7.12539 29.844 7.05022 29.5943 7.05367H28.1035C27.908 7.05056 27.7152 7.09814 27.5444 7.19159C27.3737 7.28504 27.2312 7.42105 27.1313 7.58585C26.9774 7.82122 26.9195 8.10482 26.9693 8.38014L27.1556 9.66688C27.0322 9.59827 26.8924 9.56267 26.7505 9.56363H19.5317C19.2727 9.56523 19.0196 9.63965 18.8025 9.77808C18.5925 9.90694 18.4239 10.0914 18.3164 10.3103L17.7573 9.84163C17.5373 9.64204 17.2469 9.53386 16.9471 9.5398H5.62061C5.36068 9.54444 5.10654 9.61563 4.88335 9.74632C4.578 9.92153 4.35423 10.2064 4.25948 10.5406L0.662212 22.3358C0.594998 22.5302 0.588386 22.7398 0.643223 22.9378C0.69806 23.1359 0.811861 23.3135 0.97009 23.4478C1.01132 23.4821 1.05461 23.5139 1.09972 23.5431C1.09972 23.5431 1.0268 23.4954 0.986285 23.4558L5.89609 27.6099C6.10379 27.7974 6.37534 27.9021 6.65763 27.9038H18.0733C18.334 27.8971 18.5884 27.8232 18.8106 27.6893C18.9363 27.622 19.0488 27.5332 19.1428 27.4272L19.1833 27.3716L19.2481 27.2922L19.2967 27.2048L19.8315 27.6576C20.0362 27.8376 20.3018 27.9366 20.5768 27.9356H32.0168C32.2772 27.927 32.5311 27.8532 32.7541 27.7211C32.8769 27.6496 32.9888 27.5613 33.0863 27.459L33.1267 27.4034L33.1916 27.324C33.226 27.2737 33.2559 27.2205 33.2807 27.1651C33.3072 27.1169 33.3288 27.0664 33.3455 27.0142L36.6268 16.2436V16.1483C36.6308 16.1113 36.6308 16.0741 36.6268 16.0371V15.9656C36.6307 15.9419 36.6307 15.9178 36.6268 15.8941C36.6305 15.8439 36.6305 15.7935 36.6268 15.7432H37.6801C37.7717 15.7514 37.8639 15.7514 37.9555 15.7432H38.0285C38.0877 15.7258 38.1449 15.7018 38.1986 15.6717H38.2796L38.4254 15.5605L38.4903 15.5129L38.6037 15.3699V15.3223L38.6847 15.1872C38.6802 15.1609 38.6802 15.1341 38.6847 15.1078C38.6804 15.0949 38.6804 15.081 38.6847 15.0681C38.7019 15.0215 38.7155 14.9737 38.7252 14.9251C38.7214 14.9094 38.7214 14.8931 38.7252 14.8774C38.7213 14.8538 38.7213 14.8296 38.7252 14.8059C38.7252 14.8059 38.8873 14.4962 38.8873 14.4803Z" fill="black"/>
<path d="M17.2793 10.4453C17.3224 10.4835 17.3524 10.5336 17.3654 10.589C17.3785 10.6444 17.3739 10.7023 17.3523 10.7551L13.7631 22.5424C13.7179 22.671 13.6255 22.7786 13.5039 22.8442C13.4049 22.9091 13.2904 22.9474 13.1716 22.9554H1.76412C1.66669 22.9508 1.5744 22.9112 1.50485 22.8442C1.46348 22.8067 1.43444 22.7579 1.42145 22.7042C1.40846 22.6504 1.41212 22.5941 1.43193 22.5424L5.0292 10.7551C5.07065 10.6248 5.16021 10.5143 5.28036 10.4453C5.38095 10.3851 5.49493 10.3497 5.61254 10.3421H17.0201C17.1167 10.343 17.2094 10.3799 17.2793 10.4453ZM11.3244 20.1674L13.4714 13.13H7.45981L5.32086 20.1674H11.3244ZM28.1684 10.5645C28.2073 10.6088 28.256 10.644 28.3107 10.6673C28.3654 10.6907 28.4247 10.7017 28.4844 10.6995H29.967C30.0235 10.7 30.0791 10.6865 30.1288 10.6601C30.1784 10.6337 30.2203 10.5953 30.2506 10.5486C30.2769 10.5121 30.2955 10.4708 30.3053 10.4271C30.315 10.3835 30.3157 10.3383 30.3073 10.2944L30.0156 8.19748C29.9879 8.10043 29.938 8.01082 29.8698 7.93537C29.8309 7.89102 29.7823 7.85586 29.7275 7.83248C29.6728 7.8091 29.6134 7.79812 29.5538 7.80034H28.0712C28.0147 7.7998 27.959 7.81337 27.9094 7.83978C27.8598 7.86618 27.8179 7.90455 27.7876 7.95126C27.7309 8.06245 27.7066 8.13394 27.7309 8.19748L28.0307 10.2944C28.046 10.3965 28.0943 10.4911 28.1684 10.5645ZM32.8756 8.1816C32.8478 8.08454 32.798 7.99493 32.7298 7.91948C32.6925 7.8753 32.6453 7.84014 32.5919 7.81672C32.5385 7.79331 32.4804 7.78226 32.4219 7.78445H30.9311C30.8756 7.7829 30.8207 7.79611 30.7722 7.82268C30.7237 7.84924 30.6835 7.88819 30.6557 7.93537C30.6018 8.00583 30.5785 8.09435 30.5909 8.1816L30.8906 10.2785C30.9094 10.3795 30.9572 10.4732 31.0284 10.5486C31.068 10.5921 31.1168 10.6266 31.1713 10.6499C31.2259 10.6732 31.2848 10.6847 31.3443 10.6836H32.8351C32.8905 10.6843 32.9451 10.6708 32.9934 10.6443C33.0418 10.6178 33.0822 10.5793 33.1106 10.5327C33.1388 10.4972 33.1585 10.4559 33.1683 10.4119C33.1781 10.3679 33.1778 10.3224 33.1673 10.2785L32.8756 8.1816ZM26.864 11.3588L26.7181 10.3262H19.5317C19.4189 10.3323 19.3097 10.3679 19.2157 10.4294C19.156 10.4613 19.1041 10.5056 19.0635 10.559C19.023 10.6125 18.9948 10.674 18.9808 10.7392L18.3812 12.709C18.3573 12.7583 18.3491 12.8135 18.3578 12.8674C18.3665 12.9212 18.3916 12.9713 18.4298 13.0109C18.4981 13.0738 18.5873 13.1105 18.681 13.1141H27.4149L25.2679 20.1516H16.5583C16.446 20.1541 16.3366 20.1871 16.2423 20.2468C16.1277 20.3182 16.0441 20.4285 16.0074 20.5566L15.3997 22.5265C15.3799 22.577 15.3747 22.6319 15.3847 22.6852C15.3947 22.7385 15.4195 22.788 15.4564 22.8283C15.5226 22.8955 15.6125 22.9352 15.7076 22.9395H27.1475C27.2658 22.9295 27.3799 22.8913 27.4797 22.8283C27.5993 22.7624 27.6891 22.6546 27.7309 22.5265L31.0203 11.7559H27.3177C27.2589 11.757 27.2006 11.7463 27.1463 11.7245C27.0919 11.7026 27.0427 11.6701 27.0017 11.6288C26.9347 11.5568 26.8874 11.4694 26.864 11.3746V11.3588Z" fill="white"/>
</g>
<defs>
<clipPath id="clip0_211_2080">
<rect width="38.2838" height="20.8821" fill="white" transform="translate(0.606445 7.05347)"/>
</clipPath>
</defs>
</svg>
