<svg width="39" height="35" viewBox="0 0 39 35" fill="none" xmlns="http://www.w3.org/2000/svg">
<g clip-path="url(#clip0_211_2052)">
<path d="M38.5802 14.4803C38.5841 14.4513 38.5841 14.4219 38.5802 14.3929C38.5839 14.3692 38.5839 14.3451 38.5802 14.3214L38.2965 12.2801C38.2556 12.0359 38.1462 11.8076 37.9806 11.6208L37.9319 11.5652L37.8429 11.4779L32.9331 7.33167L33.0708 7.46671C32.9581 7.33454 32.8167 7.22882 32.6569 7.15734C32.497 7.08586 32.3228 7.05043 32.1472 7.05367H30.6564C30.414 7.04897 30.1771 7.12453 29.984 7.26814C29.7811 7.12539 29.5369 7.05022 29.2872 7.05367H27.7964C27.6009 7.05056 27.408 7.09814 27.2373 7.19159C27.0666 7.28504 26.9241 7.42105 26.8242 7.58585C26.6702 7.82122 26.6124 8.10482 26.6621 8.38014L26.8485 9.66688C26.725 9.59827 26.5853 9.56267 26.4434 9.56363H19.2246C18.9655 9.56523 18.7125 9.63965 18.4954 9.77808C18.2854 9.90694 18.1168 10.0914 18.0093 10.3103L17.4502 9.84163C17.2302 9.64204 16.9398 9.53386 16.64 9.5398H5.31348C5.05356 9.54444 4.79941 9.61563 4.57622 9.74632C4.27087 9.92153 4.0471 10.2064 3.95235 10.5406L0.355083 22.3358C0.287869 22.5302 0.281257 22.7398 0.336094 22.9378C0.390931 23.1359 0.504733 23.3135 0.662961 23.4478C0.704191 23.4821 0.747482 23.5139 0.792595 23.5431C0.792595 23.5431 0.719666 23.4954 0.679156 23.4558L5.58897 27.6099C5.79666 27.7974 6.06821 27.9021 6.3505 27.9038H17.7662C18.0269 27.8971 18.2812 27.8232 18.5035 27.6893C18.6292 27.622 18.7416 27.5332 18.8357 27.4272L18.8762 27.3716L18.941 27.2922L18.9896 27.2048L19.5243 27.6576C19.729 27.8376 19.9947 27.9366 20.2697 27.9356H31.7097C31.9701 27.927 32.2239 27.8532 32.4469 27.7211C32.5698 27.6496 32.6816 27.5613 32.7792 27.459L32.8196 27.4034L32.8844 27.324C32.9189 27.2737 32.9488 27.2205 32.9735 27.1651C33 27.1169 33.0217 27.0664 33.0384 27.0142L36.3197 16.2436V16.1483C36.3237 16.1113 36.3237 16.0741 36.3197 16.0371V15.9656C36.3236 15.9419 36.3236 15.9178 36.3197 15.8941C36.3233 15.8439 36.3233 15.7935 36.3197 15.7432H37.3729C37.4646 15.7514 37.5568 15.7514 37.6484 15.7432H37.7213C37.7806 15.7258 37.8377 15.7018 37.8915 15.6717H37.9725L38.1183 15.5605L38.1831 15.5129L38.2965 15.3699V15.3223L38.3776 15.1872C38.3731 15.1609 38.3731 15.1341 38.3776 15.1078C38.3733 15.0949 38.3733 15.081 38.3776 15.0681C38.3948 15.0215 38.4084 14.9737 38.4181 14.9251C38.4143 14.9094 38.4143 14.8931 38.4181 14.8774C38.4142 14.8538 38.4142 14.8296 38.4181 14.8059C38.4181 14.8059 38.5802 14.4962 38.5802 14.4803Z" fill="black"/>
<path d="M16.9722 10.4453C17.0152 10.4835 17.0453 10.5336 17.0583 10.589C17.0714 10.6444 17.0668 10.7023 17.0452 10.7551L13.456 22.5424C13.4108 22.671 13.3183 22.7786 13.1967 22.8442C13.0978 22.9091 12.9833 22.9474 12.8645 22.9554H1.45699C1.35957 22.9508 1.26727 22.9112 1.19772 22.8442C1.15635 22.8067 1.12731 22.7579 1.11432 22.7042C1.10133 22.6504 1.10499 22.5941 1.12481 22.5424L4.72208 10.7551C4.76352 10.6248 4.85308 10.5143 4.97323 10.4453C5.07382 10.3851 5.1878 10.3497 5.30542 10.3421H16.7129C16.8096 10.343 16.9023 10.3799 16.9722 10.4453ZM11.0173 20.1674L13.1643 13.13H7.15268L5.01374 20.1674H11.0173ZM27.8612 10.5645C27.9002 10.6088 27.9488 10.644 28.0035 10.6673C28.0583 10.6907 28.1176 10.7017 28.1772 10.6995H29.6599C29.7164 10.7 29.772 10.6865 29.8216 10.6601C29.8713 10.6337 29.9132 10.5953 29.9435 10.5486C29.9698 10.5121 29.9884 10.4708 29.9981 10.4271C30.0079 10.3835 30.0085 10.3383 30.0001 10.2944L29.7085 8.19748C29.6807 8.10043 29.6309 8.01082 29.5627 7.93537C29.5237 7.89102 29.4751 7.85586 29.4204 7.83248C29.3657 7.8091 29.3063 7.79812 29.2467 7.80034H27.764C27.7076 7.7998 27.6519 7.81337 27.6023 7.83978C27.5527 7.86618 27.5107 7.90455 27.4805 7.95126C27.4237 8.06245 27.3995 8.13394 27.4237 8.19748L27.7235 10.2944C27.7389 10.3965 27.7872 10.4911 27.8612 10.5645ZM32.5685 8.1816C32.5407 8.08454 32.4908 7.99493 32.4227 7.91948C32.3854 7.8753 32.3382 7.84014 32.2848 7.81672C32.2314 7.79331 32.1732 7.78226 32.1148 7.78445H30.624C30.5685 7.7829 30.5136 7.79611 30.4651 7.82268C30.4166 7.84924 30.3763 7.88819 30.3486 7.93537C30.2947 8.00583 30.2713 8.09435 30.2838 8.1816L30.5835 10.2785C30.6023 10.3795 30.6501 10.4732 30.7213 10.5486C30.7609 10.5921 30.8096 10.6266 30.8642 10.6499C30.9187 10.6732 30.9777 10.6847 31.0372 10.6836H32.528C32.5834 10.6843 32.638 10.6708 32.6863 10.6443C32.7347 10.6178 32.7751 10.5793 32.8035 10.5327C32.8317 10.4972 32.8513 10.4559 32.8612 10.4119C32.871 10.3679 32.8706 10.3224 32.8602 10.2785L32.5685 8.1816ZM26.5568 11.3588L26.411 10.3262H19.2246C19.1117 10.3323 19.0026 10.3679 18.9086 10.4294C18.8489 10.4613 18.797 10.5056 18.7564 10.559C18.7159 10.6125 18.6876 10.674 18.6737 10.7392L18.0741 12.709C18.0502 12.7583 18.042 12.8135 18.0506 12.8674C18.0594 12.9212 18.0845 12.9713 18.1227 13.0109C18.191 13.0738 18.2802 13.1105 18.3739 13.1141H27.1078L24.9608 20.1516H16.2511C16.1388 20.1541 16.0295 20.1871 15.9352 20.2468C15.8206 20.3182 15.7369 20.4285 15.7002 20.5566L15.0926 22.5265C15.0728 22.577 15.0675 22.6319 15.0775 22.6852C15.0876 22.7385 15.1124 22.788 15.1493 22.8283C15.2155 22.8955 15.3053 22.9352 15.4004 22.9395H26.8404C26.9587 22.9295 27.0728 22.8913 27.1726 22.8283C27.2922 22.7624 27.382 22.6546 27.4237 22.5265L30.7131 11.7559H27.0106C26.9518 11.757 26.8935 11.7463 26.8391 11.7245C26.7848 11.7026 26.7356 11.6701 26.6946 11.6288C26.6276 11.5568 26.5802 11.4694 26.5568 11.3746V11.3588Z" fill="white"/>
</g>
<defs>
<clipPath id="clip0_211_2052">
<rect width="38.2838" height="20.8821" fill="white" transform="translate(0.299316 7.05347)"/>
</clipPath>
</defs>
</svg>
