<svg width="34" height="35" viewBox="0 0 34 35" fill="none" xmlns="http://www.w3.org/2000/svg">
<g clip-path="url(#clip0_211_2049)">
<path fill-rule="evenodd" clip-rule="evenodd" d="M10.0458 10.6136L3.09497 17.4945C4.48526 18.8708 6.07345 20.0308 7.80502 20.9382C8.28364 22.195 9.03386 23.3737 10.0557 24.3852C13.9 28.1908 20.1328 28.1908 23.9771 24.3852C24.9989 23.3737 25.7491 22.195 26.2277 20.9381C27.9593 20.0308 29.5475 18.8708 30.9377 17.4945L23.9926 10.6192C23.9874 10.614 23.9823 10.6089 23.9771 10.6037C20.1328 6.7981 13.9 6.7981 10.0557 10.6037C10.0524 10.607 10.0491 10.6103 10.0458 10.6136ZM23.312 22.1797C21.2864 22.8564 19.16 23.2029 17.0164 23.2029C14.8727 23.2029 12.7464 22.8564 10.7208 22.1797C10.9403 22.4679 11.1826 22.7445 11.4478 23.0071C14.5232 26.0516 19.5095 26.0516 22.5849 23.0071C22.8501 22.7445 23.0925 22.4679 23.312 22.1797ZM11.5906 11.8441C12.1128 12.1856 12.6682 12.4779 13.2492 12.7162C14.4435 13.2059 15.7236 13.458 17.0164 13.458C18.3091 13.458 19.5892 13.2059 20.7835 12.7162C21.3646 12.4779 21.9199 12.1856 22.4422 11.8441C19.4051 8.98331 14.6276 8.98332 11.5906 11.8441Z" fill="#3B4158"/>
</g>
<defs>
<clipPath id="clip0_211_2049">
<rect width="27.8428" height="19.4899" fill="white" transform="translate(3.09497 7.74951)"/>
</clipPath>
</defs>
</svg>
