<svg width="34" height="35" viewBox="0 0 34 35" fill="none" xmlns="http://www.w3.org/2000/svg">
<rect x="0.14209" y="0.919434" width="33.4113" height="33.4113" rx="5.56856" fill="#E8F5E9"/>
<g clip-path="url(#clip0_211_2511)">
<path fill-rule="evenodd" clip-rule="evenodd" d="M7.34863 1.05481C11.1929 1.05481 14.3093 4.17122 14.3093 8.0155V1.05481H21.27C25.1143 1.05481 28.2307 4.17122 28.2307 8.0155C28.2307 11.8598 25.1143 14.9762 21.27 14.9762C25.1143 14.9762 28.2307 18.0926 28.2307 21.9369C28.2307 23.8457 27.4623 25.5751 26.218 26.8326L26.192 26.8589L26.1689 26.8818C24.9111 28.1279 23.1805 28.8976 21.27 28.8976C19.3726 28.8976 17.6525 28.1384 16.3968 26.9072C16.3806 26.8912 16.3643 26.875 16.348 26.8589C16.3328 26.8436 16.3176 26.8283 16.3025 26.8129C15.0697 25.5571 14.3093 23.8358 14.3093 21.9369C14.3093 25.7811 11.1929 28.8976 7.34863 28.8976C3.50435 28.8976 0.387939 25.7811 0.387939 21.9369V14.9762H7.34863C3.50435 14.9762 0.387939 11.8598 0.387939 8.0155C0.387939 4.17122 3.50435 1.05481 7.34863 1.05481ZM12.9172 8.0155C12.9172 11.0909 10.4241 13.5841 7.34863 13.5841V2.44695C10.4241 2.44695 12.9172 4.94007 12.9172 8.0155ZM26.8386 21.9369C26.8386 18.8615 24.3455 16.3683 21.27 16.3683C18.1946 16.3683 15.7015 18.8615 15.7015 21.9369H26.8386ZM1.78008 16.3683V21.9369C1.78008 25.0123 4.2732 27.5054 7.34863 27.5054C10.4241 27.5054 12.9172 25.0123 12.9172 21.9369V16.3683H1.78008ZM15.7015 13.5841V2.44695H21.27C24.3455 2.44695 26.8386 4.94007 26.8386 8.0155C26.8386 11.0909 24.3455 13.5841 21.27 13.5841H15.7015Z" fill="#5417D7"/>
</g>
<defs>
<clipPath id="clip0_211_2511">
<rect width="27.8428" height="27.8428" fill="white" transform="translate(0.387939 1.05481)"/>
</clipPath>
</defs>
</svg>
