<svg width="34" height="35" viewBox="0 0 34 35" fill="none" xmlns="http://www.w3.org/2000/svg">
<g clip-path="url(#clip0_211_2072)">
<path d="M30.0803 9.03286C30.0803 9.35723 30.3465 9.62017 30.6749 9.62017H31.2694C31.5978 9.62017 31.864 9.35723 31.864 9.03286C31.864 8.7085 31.5978 8.44556 31.2694 8.44556H30.6749C30.3465 8.44556 30.0803 8.7085 30.0803 9.03286Z" fill="#212326"/>
<path d="M12.8381 27.2394H15.7264L14.8856 26.4088C14.6626 26.1886 14.3601 26.0648 14.0448 26.0648H12.8381C8.24101 26.0648 4.51431 22.3836 4.51431 17.8425C4.51431 13.3014 8.24101 9.62018 12.8381 9.62017H22.3511C26.9482 9.62017 30.6749 13.3014 30.6749 17.8425C30.6749 22.3836 26.9482 26.0648 22.3511 26.0648H18.7925C18.3194 26.0648 17.8657 25.8792 17.5312 25.5488L16.5462 24.5757C15.9886 24.025 15.2325 23.7156 14.444 23.7156H12.8381C9.55446 23.7156 6.89255 21.0861 6.89255 17.8425C6.89255 14.5989 9.55446 11.9694 12.8381 11.9694H22.3511C25.6348 11.9694 28.2967 14.5989 28.2967 17.8425C28.2967 21.0861 25.6348 23.7156 22.3511 23.7156H20.0661C19.5931 23.7156 19.1394 23.5299 18.8049 23.1995L17.8197 22.2264C17.2622 21.6757 16.5061 21.3663 15.7177 21.3663H12.8381C10.868 21.3663 9.27079 19.7886 9.27079 17.8425C9.27079 15.8963 10.868 14.3186 12.8381 14.3186H22.3511C24.3213 14.3186 25.9185 15.8963 25.9185 17.8425C25.9185 19.7649 24.36 21.3278 22.423 21.3656L22.4226 21.3663H21.5525C21.0795 21.3663 20.6258 21.1807 20.2913 20.8503L19.3061 19.8772C18.8487 19.4253 18.2575 19.1359 17.6245 19.0466L17.5946 19.0171H12.8381C12.1814 19.0171 11.649 18.4912 11.649 17.8425C11.649 17.1938 12.1814 16.6679 12.8381 16.6679H22.3511C23.0078 16.6679 23.5402 17.1938 23.5402 17.8425C23.5402 18.4912 23.0078 19.0171 22.3511 19.0171H19.9729L20.8137 19.8477C21.0367 20.068 21.3392 20.1917 21.6545 20.1917H22.3511C23.6645 20.1917 24.7293 19.1399 24.7293 17.8425C24.7293 16.5451 23.6645 15.4933 22.3511 15.4933H12.8381C11.5247 15.4933 10.4599 16.5451 10.4599 17.8425C10.4599 19.1399 11.5247 20.1917 12.8381 20.1917H17.2041C17.6771 20.1917 18.1308 20.3774 18.4653 20.7078L19.4505 21.6809C20.008 22.2316 20.7641 22.541 21.5525 22.541H22.6484V22.5319C25.1368 22.3804 27.1076 20.3387 27.1076 17.8425C27.1076 15.2476 24.978 13.144 22.3511 13.144H12.8381C10.2112 13.144 8.08167 15.2476 8.08167 17.8425C8.08167 20.4374 10.2112 22.541 12.8381 22.541H15.7177C16.1907 22.541 16.6444 22.7266 16.9789 23.057L17.9641 24.0301C18.5216 24.5808 19.2777 24.8902 20.0661 24.8902H22.3511C26.2915 24.8902 29.4858 21.7348 29.4858 17.8425C29.4858 13.9501 26.2915 10.7948 22.3511 10.7948H12.8381C8.89774 10.7948 5.70343 13.9501 5.70343 17.8425C5.70343 21.7348 8.89774 24.8902 12.8381 24.8902H14.444C14.9171 24.8902 15.3708 25.0758 15.7053 25.4062L16.6904 26.3793C17.2479 26.93 18.0041 27.2394 18.7925 27.2394H22.3511C27.605 27.2394 31.864 23.0323 31.864 17.8425C31.864 12.6527 27.605 8.44556 22.3511 8.44556L12.8381 8.44556C7.58429 8.44556 3.32519 12.6527 3.3252 17.8425C3.3252 23.0323 7.58429 27.2394 12.8381 27.2394Z" fill="#212326"/>
</g>
<defs>
<clipPath id="clip0_211_2072">
<rect width="28.5388" height="18.7939" fill="white" transform="translate(3.3252 8.44556)"/>
</clipPath>
</defs>
</svg>
