<svg width="37" height="35" viewBox="0 0 37 35" fill="none" xmlns="http://www.w3.org/2000/svg">
<g clip-path="url(#clip0_211_2076)">
<path d="M8.81726 10.5339C7.40373 10.5339 6.04811 11.0955 5.0486 12.095L1.78662 15.357C0.787105 16.3565 0.225586 17.7121 0.225586 19.1256C0.225586 22.0692 2.61178 24.4553 5.5553 24.4553C6.96883 24.4553 8.32445 23.8938 9.32396 22.8943L11.5803 20.6379C11.5803 20.6379 11.5803 20.638 11.5803 20.6379L18.1545 14.0638C18.6318 13.5864 19.2793 13.3182 19.9544 13.3182C21.0846 13.3182 22.0428 14.0548 22.375 15.0742L24.4498 12.9994C23.5033 11.5169 21.8436 10.5339 19.9544 10.5339C18.5408 10.5339 17.1852 11.0955 16.1857 12.095L7.35519 20.9255C6.87783 21.4029 6.23039 21.671 5.5553 21.671C4.14949 21.671 3.00986 20.5314 3.00986 19.1256C3.00986 18.4505 3.27804 17.8031 3.7554 17.3257L7.01737 14.0638C7.49473 13.5864 8.14217 13.3182 8.81726 13.3182C9.94754 13.3182 10.9057 14.0549 11.2379 15.0743L13.3128 12.9994C12.3662 11.517 10.7066 10.5339 8.81726 10.5339Z" fill="#394149"/>
<path d="M18.4924 20.9255C18.0151 21.4029 17.3676 21.671 16.6925 21.671C15.5624 21.671 14.6043 20.9346 14.272 19.9154L12.1973 21.9902C13.1438 23.4724 14.8034 24.4553 16.6925 24.4553C18.1061 24.4553 19.4617 23.8938 20.4612 22.8943L29.2917 14.0638C29.7691 13.5864 30.4165 13.3182 31.0916 13.3182C32.4974 13.3182 33.637 14.4578 33.637 15.8636C33.637 16.5387 33.3689 17.1862 32.8915 17.6635L29.6295 20.9255C29.1522 21.4029 28.5047 21.671 27.8296 21.671C26.6995 21.671 25.7413 20.9345 25.409 19.9152L23.3343 21.99C24.2808 23.4724 25.9404 24.4553 27.8296 24.4553C29.2432 24.4553 30.5988 23.8938 31.5983 22.8943L34.8603 19.6323C35.8598 18.6328 36.4213 17.2772 36.4213 15.8636C36.4213 12.9201 34.0351 10.5339 31.0916 10.5339C29.6781 10.5339 28.3225 11.0955 27.3229 12.095L18.4924 20.9255Z" fill="#394149"/>
</g>
<defs>
<clipPath id="clip0_211_2076">
<rect width="36.1956" height="13.9214" fill="white" transform="translate(0.225586 10.5339)"/>
</clipPath>
</defs>
</svg>
