<svg width="39" height="35" viewBox="0 0 39 35" fill="none" xmlns="http://www.w3.org/2000/svg">
<rect x="0.0424805" y="0.919434" width="33.4113" height="33.4113" rx="5.56856" fill="#F5F7FA"/>
<g clip-path="url(#clip0_211_2517)">
<path d="M38.3233 14.5042C38.3273 14.4752 38.3273 14.4458 38.3233 14.4168C38.3271 14.3932 38.3271 14.3691 38.3233 14.3453L38.0397 12.304C37.9988 12.0598 37.8894 11.8315 37.7238 11.6448L37.6751 11.5892L37.586 11.5018L32.6762 7.35559L32.814 7.49063C32.7013 7.35846 32.5599 7.25274 32.4 7.18126C32.2402 7.10978 32.066 7.07436 31.8904 7.0776H30.3996C30.1572 7.07289 29.9203 7.14845 29.7271 7.29206C29.5243 7.14932 29.28 7.07414 29.0304 7.0776H27.5396C27.3441 7.07449 27.1512 7.12206 26.9805 7.21551C26.8097 7.30896 26.6672 7.44497 26.5674 7.60977C26.4134 7.84515 26.3555 8.12874 26.4053 8.40406L26.5917 9.69081C26.4682 9.6222 26.3285 9.5866 26.1866 9.58756H18.9677C18.7087 9.58915 18.4557 9.66358 18.2385 9.80201C18.0285 9.93086 17.86 10.1154 17.7524 10.3342L17.1934 9.86555C16.9733 9.66597 16.6829 9.55779 16.3832 9.56373H5.05664C4.79672 9.56837 4.54257 9.63956 4.31938 9.77024C4.01404 9.94545 3.79026 10.2303 3.69552 10.5645L0.0982472 22.3597C0.0310335 22.5541 0.0244215 22.7637 0.0792581 22.9618C0.134095 23.1598 0.247897 23.3374 0.406125 23.4718C0.447355 23.506 0.490646 23.5379 0.53576 23.567C0.53576 23.567 0.46283 23.5194 0.42232 23.4797L5.33213 27.6338C5.53982 27.8213 5.81137 27.9261 6.09366 27.9277H17.5094C17.7701 27.9211 18.0244 27.8471 18.2467 27.7132C18.3723 27.6459 18.4848 27.5571 18.5788 27.4511L18.6193 27.3955L18.6841 27.3161L18.7327 27.2287L19.2675 27.6815C19.4722 27.8615 19.7379 27.9605 20.0129 27.9595H31.4528C31.7133 27.951 31.9671 27.8771 32.1901 27.745C32.313 27.6735 32.4248 27.5853 32.5223 27.4829L32.5628 27.4273L32.6276 27.3479C32.6621 27.2976 32.6919 27.2445 32.7167 27.189C32.7432 27.1408 32.7649 27.0903 32.7815 27.0381L36.0628 16.2675V16.1722C36.0669 16.1353 36.0669 16.098 36.0628 16.061V15.9896C36.0668 15.9659 36.0668 15.9417 36.0628 15.918C36.0665 15.8678 36.0665 15.8174 36.0628 15.7671H37.1161C37.2077 15.7754 37.2999 15.7754 37.3915 15.7671H37.4645C37.5238 15.7498 37.5809 15.7258 37.6346 15.6956H37.7157L37.8615 15.5844L37.9263 15.5368L38.0397 15.3938V15.3462L38.1207 15.2111C38.1162 15.1849 38.1162 15.158 38.1207 15.1317C38.1164 15.1188 38.1164 15.1049 38.1207 15.092C38.138 15.0454 38.1515 14.9976 38.1613 14.949C38.1575 14.9333 38.1575 14.917 38.1613 14.9013C38.1573 14.8777 38.1573 14.8535 38.1613 14.8299C38.1613 14.8299 38.3233 14.5201 38.3233 14.5042Z" fill="black"/>
<path d="M16.7154 10.4693C16.7584 10.5074 16.7884 10.5576 16.8015 10.613C16.8145 10.6684 16.8099 10.7263 16.7883 10.7791L13.1992 22.5663C13.154 22.695 13.0615 22.8026 12.9399 22.8682C12.8409 22.9331 12.7264 22.9714 12.6077 22.9794H1.20015C1.10273 22.9748 1.01043 22.9352 0.940885 22.8682C0.899512 22.8307 0.870474 22.7819 0.857484 22.7282C0.844495 22.6744 0.848153 22.6181 0.86797 22.5663L4.46524 10.7791C4.50669 10.6488 4.59625 10.5383 4.7164 10.4693C4.81698 10.4091 4.93097 10.3736 5.04858 10.366H16.4561C16.5528 10.367 16.6455 10.4039 16.7154 10.4693ZM10.7604 20.1914L12.9075 13.154H6.89584L4.7569 20.1914H10.7604ZM27.6044 10.5884C27.6433 10.6328 27.692 10.668 27.7467 10.6913C27.8014 10.7147 27.8608 10.7257 27.9204 10.7235H29.4031C29.4595 10.724 29.5151 10.7104 29.5648 10.684C29.6144 10.6576 29.6563 10.6193 29.6866 10.5726C29.7129 10.5361 29.7316 10.4948 29.7413 10.4511C29.751 10.4075 29.7517 10.3623 29.7433 10.3184L29.4517 8.22147C29.4239 8.12442 29.374 8.03481 29.3059 7.95935C29.2669 7.91501 29.2183 7.87984 29.1636 7.85647C29.1089 7.83309 29.0495 7.82211 28.9899 7.82432H27.5072C27.4507 7.82379 27.3951 7.83736 27.3455 7.86377C27.2959 7.89017 27.2539 7.92854 27.2236 7.97524C27.1669 8.08644 27.1426 8.15793 27.1669 8.22147L27.4667 10.3184C27.4821 10.4205 27.5303 10.5151 27.6044 10.5884ZM32.3117 8.20558C32.2839 8.10853 32.234 8.01891 32.1658 7.94347C32.1286 7.89929 32.0813 7.86413 32.028 7.84071C31.9746 7.8173 31.9164 7.80625 31.858 7.80844H30.3672C30.3117 7.80689 30.2567 7.8201 30.2082 7.84666C30.1598 7.87323 30.1195 7.91218 30.0917 7.95935C30.0378 8.02982 30.0145 8.11833 30.0269 8.20558L30.3267 10.3025C30.3455 10.4035 30.3932 10.4972 30.4644 10.5726C30.504 10.616 30.5528 10.6506 30.6074 10.6739C30.6619 10.6972 30.7209 10.7087 30.7804 10.7076H32.2712C32.3266 10.7083 32.3811 10.6947 32.4295 10.6683C32.4778 10.6418 32.5182 10.6033 32.5466 10.5567C32.5748 10.5211 32.5945 10.4799 32.6043 10.4359C32.6142 10.3919 32.6138 10.3463 32.6033 10.3025L32.3117 8.20558ZM26.3 11.3827L26.1541 10.3502H18.9677C18.8549 10.3563 18.7457 10.3919 18.6517 10.4534C18.5921 10.4853 18.5401 10.5295 18.4996 10.583C18.459 10.6365 18.4308 10.698 18.4168 10.7632L17.8173 12.733C17.7933 12.7822 17.7851 12.8375 17.7938 12.8914C17.8025 12.9452 17.8276 12.9952 17.8659 13.0349C17.9342 13.0978 18.0234 13.1345 18.117 13.1381H26.851L24.7039 20.1755H15.9943C15.882 20.1781 15.7726 20.211 15.6784 20.2708C15.5638 20.3422 15.4801 20.4525 15.4434 20.5806L14.8357 22.5505C14.8159 22.601 14.8107 22.6559 14.8207 22.7092C14.8307 22.7625 14.8555 22.812 14.8924 22.8523C14.9586 22.9195 15.0485 22.9592 15.1436 22.9635H26.5836C26.7019 22.9535 26.8159 22.9153 26.9157 22.8523C27.0354 22.7864 27.1251 22.6786 27.1669 22.5505L30.4563 11.7799H26.7537C26.695 11.781 26.6366 11.7703 26.5823 11.7485C26.5279 11.7266 26.4788 11.694 26.4378 11.6528C26.3708 11.5808 26.3234 11.4934 26.3 11.3986V11.3827Z" fill="white"/>
</g>
<defs>
<clipPath id="clip0_211_2517">
<rect width="38.2838" height="20.8821" fill="white" transform="translate(0.0424805 7.07739)"/>
</clipPath>
</defs>
</svg>
