<svg width="61" height="73" viewBox="0 0 61 73" fill="none" xmlns="http://www.w3.org/2000/svg">
<path d="M42.672 15.7528L38.967 17.0765L37.3771 12.2349C34.4563 3.30711 25.1472 -1.43377 16.5935 1.58054C8.03976 4.59485 3.48592 14.386 6.40671 23.3138L7.99659 28.1554L4.27727 29.4863C2.85902 30.0364 1.70731 31.1119 1.06152 32.4892C0.41574 33.8665 0.325556 35.4397 0.809727 36.8818L11.1188 68.3846C11.3328 69.0985 11.6881 69.7621 12.1636 70.3359C12.6391 70.9098 13.2252 71.3822 13.8868 71.7251C14.5485 72.0681 15.2724 72.2745 16.0154 72.3321C16.7584 72.3898 17.5055 72.2975 18.2122 72.0608L56.6069 58.3273C58.0439 57.7782 59.2119 56.6932 59.8653 55.3005C60.5187 53.9078 60.6066 52.316 60.1104 50.8599L49.7941 19.3571C49.5745 18.6452 49.2138 17.9848 48.7335 17.4154C48.2531 16.8459 47.663 16.3791 46.9983 16.0427C46.3336 15.7063 45.6079 15.5073 44.8646 15.4575C44.1213 15.4077 43.3756 15.5081 42.672 15.7528ZM13.4065 20.7887C12.619 18.4673 12.7604 15.9312 13.801 13.7118C14.8417 11.4923 16.7009 9.76171 18.9891 8.88251C20.119 8.49592 21.3152 8.3409 22.5063 8.42669C23.6975 8.51247 24.8591 8.83732 25.9219 9.38183C26.9848 9.92634 27.9271 10.6794 28.6925 11.596C29.458 12.5126 30.031 13.574 30.3773 14.7169L31.96 19.5585L14.9892 25.6303L13.4065 20.7887ZM34.9887 48.7448L37.6217 56.7878C37.6701 56.949 37.6545 57.1227 37.5781 57.2728C37.5018 57.4228 37.3705 57.5377 37.2117 57.5935L33.5211 58.91C33.3743 58.9507 33.2173 58.933 33.0832 58.8606C32.9491 58.7882 32.8482 58.6667 32.8017 58.5215L30.1471 50.5145C28.6834 50.4348 27.2789 49.9098 26.1218 49.0098C24.9646 48.1098 24.1101 46.8778 23.6725 45.4787C23.0468 43.6291 23.1609 41.6091 23.9909 39.8417C24.821 38.0743 26.3026 36.6966 28.1256 35.9969C29.0257 35.6894 29.9784 35.5662 30.9271 35.6348C31.8758 35.7033 32.801 35.9621 33.6475 36.3958C34.4941 36.8294 35.2446 37.4291 35.8545 38.159C36.4643 38.8889 36.921 39.7341 37.1973 40.6443C37.6601 42.0655 37.6984 43.5909 37.3074 45.0335C36.9164 46.4762 36.1131 47.7734 34.9959 48.7664L34.9887 48.7448Z" fill="#4CAF4F"/>
<path d="M38.8016 16.9902C38.8016 17.0909 31.9313 19.6736 23.3848 22.7455C14.8382 25.8173 7.86716 28.2849 7.83119 28.213C7.79522 28.141 14.7015 25.5368 23.2553 22.4577C31.809 19.3787 38.7657 16.8967 38.8016 16.9902Z" fill="#263238"/>
<path d="M46.9596 18.314C46.9913 18.3764 47.0178 18.4414 47.0387 18.5082C47.0962 18.6521 47.161 18.8391 47.2473 19.0693C47.4344 19.5945 47.6934 20.3211 48.0171 21.2276L50.7796 29.2705C51.9307 32.6805 53.3047 36.7236 54.8299 41.2127C55.5493 43.4644 56.3982 45.8097 57.1895 48.2772C57.6131 49.5488 57.7961 50.8882 57.7291 52.2268C57.6681 52.9229 57.47 53.6002 57.1464 54.2195C56.8006 54.8368 56.3389 55.3815 55.7867 55.8238C54.6752 56.6351 53.4416 57.2641 52.1321 57.6871L48.4272 59.018L41.4129 61.5287L29.5355 65.7588L21.5142 68.5789L19.356 69.2983L18.7804 69.4853C18.7189 69.5127 18.6533 69.5297 18.5862 69.5357C18.5862 69.5357 18.6437 69.5357 18.766 69.4494L19.3272 69.2263L21.4854 68.4134L29.4636 65.4782L41.3194 61.1618L48.3193 58.6295L52.0242 57.2914C53.2964 56.8856 54.4943 56.2758 55.5709 55.4857C56.0847 55.0753 56.5146 54.5697 56.837 53.9965C57.1417 53.4237 57.3253 52.7944 57.3766 52.1476C57.4428 50.8579 57.2671 49.5671 56.8586 48.342C56.0816 45.896 55.2615 43.5292 54.5205 41.2774C53.0242 36.7811 51.6429 32.7237 50.5494 29.3137C49.4559 25.9037 48.5351 23.1628 47.902 21.2348C47.5998 20.2923 47.3696 19.5585 47.1826 19.0262L47.0099 18.4507C46.9882 18.4071 46.9713 18.3612 46.9596 18.314Z" fill="#263238"/>
<path d="M26.7012 8.39339C26.7012 8.39339 26.3199 8.20634 25.6149 7.91858C24.61 7.53245 23.5472 7.31843 22.4711 7.2855C20.8762 7.23081 19.2889 7.53057 17.8238 8.16318C16.0421 8.95091 14.5186 10.225 13.4282 11.8393C12.3305 13.449 11.7415 15.3513 11.7376 17.2996C11.7526 18.8965 11.9948 20.4831 12.457 22.0117C12.8311 23.3211 13.2196 24.3642 13.4785 25.0908C13.6313 25.4599 13.7564 25.8398 13.8526 26.2275C13.6483 25.8824 13.4772 25.5187 13.3419 25.1412C13.0469 24.4218 12.6225 23.4002 12.2052 22.0837C11.693 20.539 11.4142 18.9266 11.3779 17.2996C11.3587 15.2777 11.9614 13.2987 13.1045 11.6307C14.2329 9.95745 15.8186 8.64391 17.6727 7.84664C19.1835 7.21056 20.8203 6.92998 22.4567 7.02651C23.5561 7.08254 24.6361 7.33852 25.6437 7.78189C25.9131 7.90617 26.1728 8.05046 26.4207 8.21354C26.523 8.25849 26.6177 8.31918 26.7012 8.39339Z" fill="#263238"/>
<path d="M27.0321 36.5437C27.147 36.4742 27.2673 36.414 27.3918 36.3639C27.7519 36.2014 28.1249 36.0691 28.5069 35.9682C29.1133 35.7893 29.7388 35.683 30.3702 35.6517C31.2291 35.6055 32.0883 35.7353 32.8953 36.033C34.737 36.6804 36.4276 38.5581 37.2621 41.0688C37.6623 42.4162 37.6623 43.8508 37.2621 45.1982C36.8183 46.6606 36.023 47.9919 34.9456 49.0758L34.9888 48.8816C35.9456 51.5074 36.9887 54.3562 38.0678 57.3274L38.1326 57.5072L37.9527 57.572L36.3053 58.1187L32.7083 59.3201L32.5284 59.3777L32.4708 59.1978C31.4853 56.2195 30.4061 53.4426 29.5932 50.716L29.7515 50.8383C28.3451 50.7215 27.0041 50.1936 25.8955 49.3204C24.8924 48.5479 24.07 47.5658 23.4855 46.4428C22.9581 45.4468 22.6955 44.3321 22.7229 43.2054C22.7562 42.054 23.0437 40.9242 23.5648 39.8968C24.0859 38.8695 24.8278 37.9702 25.7372 37.2632C26.1116 36.9593 26.5316 36.7165 26.9818 36.5437C26.5754 36.7849 26.1816 37.0466 25.802 37.3279C24.803 38.1731 24.0376 39.2605 23.579 40.4861C23.1854 41.4103 23.0013 42.4101 23.0399 43.4139C23.0784 44.4177 23.3387 45.4004 23.802 46.2917C24.3768 47.3721 25.1794 48.3147 26.1545 49.0542C27.2121 49.8842 28.4906 50.3846 29.8306 50.493H29.9529L29.9889 50.6009C30.7803 53.2771 31.8666 56.0756 32.8665 59.0684L32.6291 58.9533L36.2261 57.7518L37.8664 57.1979L37.7513 57.4425C36.6794 54.4713 35.6434 51.6153 34.6938 48.9895V48.8816L34.7802 48.7952C35.826 47.7563 36.6058 46.4805 37.0535 45.0759C37.435 43.787 37.435 42.4152 37.0535 41.1264C36.2693 38.7092 34.6507 36.8747 32.8953 36.2272C32.1183 35.9276 31.2888 35.7881 30.4565 35.8171C29.8351 35.8314 29.2173 35.9158 28.6148 36.0689C27.5429 36.3351 27.0393 36.5797 27.0321 36.5437Z" fill="#263238"/>
</svg>
