<svg width="60" height="103" viewBox="0 0 60 103" fill="none" xmlns="http://www.w3.org/2000/svg">
<path d="M13.2338 76.7335C2.119 68.9711 -0.398915 54.5614 0.0399228 41.6049C0.111863 39.4467 -0.125532 37.159 0.903219 35.2669C1.93197 33.3749 4.33478 32.0728 6.26998 32.9792C7.87426 33.7346 8.57209 35.6051 9.47135 37.1518C10.6712 39.2119 12.4296 40.8904 14.5432 41.9934C15.9172 42.7128 17.6222 43.1444 18.9819 42.3963C20.8524 41.3675 21.0682 38.7992 21.0538 36.641C21.0538 32.6267 21.0298 28.6172 20.9818 24.6125C20.8526 22.4621 21.0712 20.305 21.6293 18.2242C22.2984 16.1811 23.7875 14.2891 25.8234 13.7135C27.8594 13.138 30.3989 14.325 30.8593 16.4257C30.9385 17.3154 30.9602 18.2094 30.924 19.1019C30.9816 20.0011 31.3988 20.9867 32.2406 21.2601C33.0823 21.5335 33.9599 20.9076 34.6074 20.2745C36.8232 18.1163 38.3339 15.3034 39.7368 12.5265C41.1396 9.74961 42.5137 6.89356 44.528 4.52671C46.5423 2.15986 49.3264 0.282218 52.4415 0.102366C55.5565 -0.0774856 58.801 1.83614 59.578 4.85764C60.3549 7.87915 58.5924 10.9654 56.7004 13.4186C53.8453 17.06 50.4797 20.2704 46.7078 22.9507C45.9715 23.3527 45.3839 23.9807 45.0316 24.742C44.564 26.1808 45.9236 27.6197 47.3409 28.0729C48.9452 28.6052 50.6861 28.4398 52.3767 28.6412C54.0673 28.8426 55.8658 29.5764 56.5061 31.1591C57.3838 33.3605 55.5421 35.6626 53.7364 37.1734C50.1106 40.1949 45.9935 42.5722 41.564 44.202C39.9814 44.7775 38.3195 45.2883 37.039 46.3962C35.7584 47.504 34.9959 49.4393 35.7656 50.9572C36.5354 52.4751 38.5138 52.9571 40.1756 52.6478C41.8374 52.3385 43.3122 51.4464 44.8949 50.8493C47.8517 49.7342 51.6645 49.9356 53.5278 52.4895C54.105 53.3693 54.4704 54.3709 54.5952 55.4157C54.7201 56.4605 54.6009 57.52 54.2472 58.511C53.5272 60.4831 52.419 62.2909 50.9883 63.8274C46.2765 69.4569 40.1544 73.7345 33.2477 76.2227C26.3918 78.5968 20.0394 79.2443 13.2267 76.7479" fill="#4CAF4F"/>
<path d="M56.4127 1.87927C56.4127 1.87927 56.3479 1.95121 56.204 2.08071L55.5637 2.64903C55.0026 3.15262 54.1753 3.88642 53.1322 4.85761C50.1746 7.60369 47.4283 10.5689 44.9165 13.7279C43.3123 15.7206 41.6504 17.9796 39.8807 20.4328C38.111 22.8859 36.2837 25.5334 34.4708 28.3462C32.538 31.3125 30.768 34.3817 29.1687 37.5402C28.3342 39.1877 27.6004 40.9071 26.8451 42.6624L24.6149 48.022C21.6752 54.7729 19.1149 61.6828 16.946 68.7193C15.199 74.4765 13.9947 80.3846 13.349 86.3663C12.9306 90.4031 12.8632 94.4686 13.1476 98.5171C13.2627 99.9559 13.3706 101.057 13.4713 101.805C13.5145 102.164 13.5432 102.452 13.572 102.661V102.956C13.541 102.862 13.5194 102.766 13.5073 102.668C13.4713 102.459 13.4281 102.179 13.3706 101.819C13.2411 101.1 13.1044 99.9631 12.9749 98.5243C12.6278 94.4683 12.6519 90.3891 13.0469 86.3376C13.6525 80.3303 14.8304 74.3947 16.5647 68.6114C18.7154 61.5551 21.2687 54.6278 24.212 47.8637L26.4997 42.5257C27.2551 40.7776 27.9961 39.0438 28.8378 37.3892C30.4482 34.2211 32.2327 31.1445 34.183 28.1736C36.0247 25.2959 37.8807 22.6917 39.6289 20.2601C41.3771 17.8285 43.0677 15.5552 44.6647 13.5696C47.202 10.4189 49.9853 7.47451 52.9883 4.76409C54.053 3.80728 54.9019 3.08787 55.4774 2.60587L56.1465 2.06631C56.2285 1.99491 56.3177 1.93222 56.4127 1.87927Z" fill="#263238"/>
<path d="M28.9313 37.3748C28.8298 37.0784 28.7599 36.7722 28.7226 36.4611C28.6075 35.864 28.4781 35.0223 28.327 33.9288C28.0176 31.7706 27.7011 28.8138 27.363 25.5405C27.0249 22.2672 26.6436 19.3033 26.327 17.1667C26.1616 16.1019 26.0177 15.2458 25.917 14.6487C25.8384 14.3431 25.7973 14.0291 25.7947 13.7135C25.9185 14.0017 26.0079 14.3036 26.0609 14.6128C26.2191 15.2027 26.399 16.0516 26.6004 17.1235C27.0105 19.2817 27.4133 22.2169 27.7514 25.4974C28.0896 28.7779 28.3773 31.6555 28.6004 33.8928C28.7083 34.9 28.8018 35.7561 28.8737 36.4396C28.9296 36.7479 28.9489 37.0618 28.9313 37.3748Z" fill="#263238"/>
<path d="M56.614 32.2095C56.2639 32.2857 55.9074 32.3291 55.5493 32.339C54.8299 32.4037 53.8083 32.4901 52.5422 32.6339C50.0099 32.9073 46.5279 33.4109 42.7079 34.1303C38.8878 34.8497 35.4563 35.6626 32.9887 36.2885C31.7585 36.6051 30.7658 36.8928 30.1111 37.0871C29.7615 37.2113 29.3998 37.2981 29.032 37.346C29.3644 37.1789 29.7111 37.0417 30.0679 36.936C30.7441 36.6986 31.7225 36.3676 32.9455 36.0151C35.3987 35.2957 38.8303 34.4396 42.6647 33.7058C45.9128 33.0848 49.1903 32.6286 52.4846 32.339C53.758 32.2311 54.7867 32.1879 55.5061 32.1735C55.8757 32.1484 56.2469 32.1604 56.614 32.2095Z" fill="#263238"/>
<path d="M16.9171 68.1078C16.8404 68.0036 16.7775 67.89 16.73 67.7696L16.2552 66.7697C15.8452 65.8992 15.2912 64.6115 14.6294 63.036C13.2913 59.8706 11.5863 55.439 9.77338 50.5183C7.96047 45.5975 6.29145 41.166 5.02529 37.9646C4.4066 36.4107 3.89584 35.1374 3.51456 34.1878L3.11167 33.159C3.05583 33.0404 3.01709 32.9144 2.99658 32.7849C3.07328 32.8891 3.13614 33.0027 3.18361 33.123L3.65842 34.123C4.06129 34.9935 4.62243 36.2812 5.28429 37.8567C6.62238 41.0221 8.32738 45.4537 10.1403 50.3744C11.9532 55.2951 13.6222 59.7267 14.8884 62.928C15.5071 64.4819 16.0178 65.7553 16.3919 66.7049C16.5574 67.115 16.6941 67.4243 16.802 67.7337C16.8578 67.8523 16.8966 67.9783 16.9171 68.1078Z" fill="#263238"/>
<path d="M53.6644 56.2593C53.5492 56.3254 53.4258 56.3762 53.2975 56.4103L52.2328 56.77L48.2976 58.0434C44.974 59.1225 40.3841 60.6621 35.3483 62.3599C30.3125 64.0576 25.701 65.5684 22.3558 66.5756C20.6868 67.0863 19.3271 67.4748 18.3847 67.7338L17.2984 68.0144C17.1721 68.0545 17.0419 68.081 16.9099 68.0935C17.0251 68.0274 17.1484 67.9766 17.2768 67.9424L18.3415 67.5827L22.2767 66.3094C25.6003 65.2303 30.1901 63.6907 35.226 61.9929C40.2618 60.2951 44.866 58.7844 48.2113 57.7772C49.8875 57.2664 51.24 56.878 52.1896 56.619L53.2759 56.3384C53.4022 56.2983 53.5324 56.2718 53.6644 56.2593Z" fill="#263238"/>
</svg>
