<svg width="23" height="23" viewBox="0 0 23 23" fill="none" xmlns="http://www.w3.org/2000/svg">
<path opacity="0.1" fill-rule="evenodd" clip-rule="evenodd" d="M0.674072 11.7743C0.674072 5.62345 5.66033 0.637192 11.8112 0.637192C17.962 0.637192 22.9483 5.62345 22.9483 11.7743C22.9483 17.9252 17.962 22.9114 11.8112 22.9114C5.66033 22.9114 0.674072 17.9252 0.674072 11.7743Z" fill="white"/>
<path fill-rule="evenodd" clip-rule="evenodd" d="M11.4777 9.68954L11.501 10.0749L11.1115 10.0277C9.69373 9.84684 8.45509 9.23339 7.40341 8.20312L6.88926 7.69192L6.75683 8.06942C6.47638 8.91094 6.65556 9.79965 7.23982 10.3974C7.55143 10.7277 7.48131 10.7749 6.94379 10.5783C6.75683 10.5153 6.59323 10.4681 6.57765 10.4917C6.52312 10.5468 6.71009 11.2625 6.8581 11.5456C7.06064 11.9388 7.47352 12.3242 7.92535 12.5523L8.30707 12.7332L7.85524 12.741C7.41899 12.741 7.40341 12.7489 7.45015 12.9141C7.60596 13.4253 8.22138 13.9679 8.90692 14.2039L9.38991 14.369L8.96924 14.6207C8.34602 14.9825 7.61375 15.187 6.88147 15.2027C6.53091 15.2105 6.24268 15.242 6.24268 15.2656C6.24268 15.3442 7.19308 15.7847 7.74618 15.9577C9.40549 16.4689 11.3764 16.2487 12.8565 15.3757C13.9082 14.7544 14.9599 13.5196 15.4507 12.3242C15.7155 11.6872 15.9804 10.5232 15.9804 9.96481C15.9804 9.60303 16.0038 9.55584 16.44 9.12329C16.6971 8.87162 16.9386 8.59635 16.9853 8.51771C17.0632 8.36828 17.0554 8.36828 16.6581 8.50198C15.996 8.73792 15.9025 8.70646 16.2297 8.35255C16.4712 8.10088 16.7594 7.64473 16.7594 7.51103C16.7594 7.48743 16.6426 7.52676 16.5101 7.59754C16.3699 7.67619 16.0583 7.79416 15.8246 7.86494L15.4039 7.99864L15.0222 7.7391C14.8119 7.59754 14.5158 7.44025 14.36 7.39306C13.9627 7.28295 13.3551 7.29868 12.9968 7.42452C12.023 7.77843 11.4076 8.69073 11.4777 9.68954Z" fill="white"/>
</svg>
