<svg width="23" height="23" viewBox="0 0 23 23" fill="none" xmlns="http://www.w3.org/2000/svg">
<path opacity="0.1" fill-rule="evenodd" clip-rule="evenodd" d="M0.262695 11.7743C0.262695 5.62345 5.24895 0.637192 11.3998 0.637192C17.5507 0.637192 22.5369 5.62345 22.5369 11.7743C22.5369 17.9252 17.5507 22.9114 11.3998 22.9114C5.24895 22.9114 0.262695 17.9252 0.262695 11.7743Z" fill="white"/>
<path fill-rule="evenodd" clip-rule="evenodd" d="M17.3395 11.7661C17.3395 12.1678 17.2987 12.5689 17.2183 12.9599C17.14 13.3416 17.024 13.7164 16.872 14.0747C16.7235 14.4266 16.5393 14.7657 16.3241 15.082C16.1121 15.3963 15.8679 15.6911 15.5996 15.9599C15.3307 16.2275 15.0349 16.471 14.7208 16.6839C14.4035 16.8976 14.0638 17.0816 13.7117 17.2307C13.3529 17.3819 12.9773 17.4978 12.5959 17.5759C12.2044 17.6565 11.8018 17.6976 11.3995 17.6976C10.9969 17.6976 10.5943 17.6565 10.2034 17.5759C9.82137 17.4978 9.44576 17.3819 9.08726 17.2307C8.73516 17.0816 8.39521 16.8976 8.07791 16.6839C7.76379 16.471 7.46795 16.2275 7.19966 15.9599C6.93108 15.6911 6.68685 15.3963 6.47455 15.082C6.26049 14.7657 6.07601 14.4266 5.92694 14.0747C5.77494 13.7164 5.65865 13.3416 5.58004 12.9599C5.50058 12.5689 5.45996 12.1678 5.45996 11.7661C5.45996 11.3641 5.50055 10.9621 5.58007 10.5719C5.65867 10.1902 5.77496 9.81483 5.92696 9.45715C6.07603 9.10497 6.26052 8.76554 6.47457 8.44925C6.68688 8.13473 6.93111 7.84045 7.19968 7.57139C7.46797 7.30376 7.76382 7.06079 8.07793 6.8482C8.39523 6.63358 8.73518 6.44969 9.08729 6.30023C9.44578 6.14872 9.82137 6.0326 10.2034 5.95499C10.5944 5.87506 10.9969 5.8345 11.3995 5.8345C11.8018 5.8345 12.2044 5.87506 12.5959 5.95499C12.9773 6.03262 13.3529 6.14875 13.7117 6.30023C14.0638 6.44966 14.4035 6.63358 14.7208 6.8482C15.0349 7.06079 15.3308 7.30376 15.5996 7.57139C15.8679 7.84045 16.1121 8.13473 16.3241 8.44925C16.5393 8.76554 16.7235 9.105 16.872 9.45715C17.024 9.81483 17.14 10.1902 17.2183 10.5719C17.2987 10.9621 17.3395 11.3641 17.3395 11.7661ZM9.23515 7.18445C7.82059 7.85147 6.76484 9.15304 6.43563 10.7217C6.56936 10.7228 8.6832 10.7495 11.1187 10.1033C10.2407 8.54568 9.30274 7.27455 9.23515 7.18445ZM11.539 10.8833C8.92713 11.6641 6.42084 11.6079 6.33094 11.6045C6.32947 11.6589 6.32687 11.7116 6.32687 11.7661C6.32687 13.0673 6.81849 14.2536 7.62656 15.1506C7.62481 15.148 9.01298 12.6888 11.7504 11.8049C11.8165 11.7829 11.8838 11.7632 11.9505 11.744C11.8232 11.4562 11.6843 11.1677 11.539 10.8833ZM14.7495 7.96442C13.8564 7.17807 12.6838 6.70108 11.3995 6.70108C10.9873 6.70108 10.5873 6.7509 10.2042 6.843C10.2802 6.94496 11.233 8.20714 12.1005 9.79774C14.0145 9.08122 14.737 7.98295 14.7495 7.96442ZM12.2963 12.5834C12.285 12.5871 12.2737 12.5903 12.2627 12.5944C9.26975 13.6363 8.29238 15.7359 8.2818 15.7588C9.14296 16.4276 10.2231 16.831 11.3995 16.831C12.102 16.831 12.7711 16.6882 13.3799 16.4296C13.3048 15.9871 13.0101 14.4358 12.2963 12.5834ZM14.2341 15.9668C15.3731 15.1993 16.182 13.9806 16.4076 12.5689C16.3032 12.5353 14.884 12.0866 13.2467 12.3488C13.9121 14.1746 14.1824 15.6615 14.2341 15.9668ZM12.4909 10.5525C12.6087 10.7941 12.7227 11.0399 12.828 11.287C12.8654 11.3756 12.9019 11.4625 12.9376 11.5494C14.6802 11.3304 16.3969 11.6988 16.4703 11.7139C16.4587 10.5131 16.0286 9.41108 15.3168 8.54831C15.3073 8.56189 14.4937 9.73575 12.4909 10.5525Z" fill="white"/>
</svg>
