<svg width="39" height="43" viewBox="0 0 39 43" fill="none" xmlns="http://www.w3.org/2000/svg">
<path d="M19.4895 0.16814H19.1514L18.173 0.240085C17.6435 0.271896 17.117 0.341623 16.5975 0.448719C16.261 0.495967 15.9272 0.560795 15.5975 0.642951L14.4824 0.952301C12.5845 1.53458 10.7938 2.42141 9.18038 3.57813C7.04869 5.12541 5.2687 7.10644 3.95749 9.39093C3.18681 10.7078 2.57351 12.1107 2.1302 13.5707C1.66437 15.1575 1.39617 16.7957 1.33166 18.4483C1.28879 19.3163 1.3032 20.1863 1.37482 21.0525C1.37482 21.4914 1.49712 21.9302 1.55467 22.3762C1.60308 22.8258 1.68728 23.2709 1.80647 23.7071C2.45337 26.5939 3.76596 29.2896 5.63954 31.5791C7.51311 33.8686 9.89581 35.6886 12.5976 36.8938C14.553 37.7376 16.6489 38.2085 18.7773 38.2823C20.9756 38.4032 23.1761 38.0878 25.2519 37.3542L25.885 37.1168H25.9713L26.0433 37.16L35.115 41.7642L34.8488 41.9944C33.8776 38.9873 32.9424 36.0737 32.0359 33.2752V33.1673L32.1151 33.0882C34.3157 30.8716 35.9494 28.1571 36.8775 25.1747C37.7182 22.4481 37.9635 19.5728 37.5969 16.7433C37.2709 14.2286 36.4623 11.8005 35.2157 9.59237C34.1411 7.69553 32.7549 5.99312 31.1151 4.55652C29.7622 3.41944 28.2648 2.46635 26.662 1.72206C25.4491 1.19897 24.186 0.801229 22.8923 0.535044L21.4534 0.297639L20.4103 0.218504L19.7772 0.175341H19.5614C19.6331 0.167382 19.7055 0.167382 19.7772 0.175341H20.4175L21.4606 0.218504L22.8995 0.427127C24.2093 0.673826 25.4896 1.05722 26.7195 1.57099C28.3499 2.30643 29.8743 3.25733 31.2518 4.39825C32.9217 5.82848 34.3373 7.53116 35.4387 9.4341C36.7207 11.666 37.5541 14.1269 37.8919 16.6785C38.2889 19.5518 38.0606 22.4769 37.2228 25.2538C36.2886 28.2982 34.6297 31.0705 32.3884 33.3328L32.4316 33.1457C33.338 35.9442 34.2805 38.8578 35.2589 41.8577L35.3955 42.2966L34.9855 42.0879L25.9138 37.4909H26.072L25.4246 37.7283C23.3088 38.4729 21.0675 38.7955 18.8276 38.678C16.6533 38.5952 14.5136 38.1072 12.5184 37.2392C8.71255 35.6092 5.5461 32.7763 3.50426 29.1746C2.56466 27.5112 1.87846 25.7169 1.46834 23.851C1.35604 23.4035 1.27194 22.9494 1.21655 22.4913C1.159 22.0381 1.06548 21.5921 1.0439 21.146C0.849195 18.5863 1.11974 16.0124 1.84244 13.5491C2.29679 12.069 2.92718 10.6488 3.72009 9.31899C5.06258 7.01374 6.87965 5.02012 9.05089 3.47022C10.6909 2.31054 12.5116 1.43054 14.4392 0.865965L15.5687 0.578207C15.9011 0.501098 16.2373 0.441069 16.5759 0.398355C17.1008 0.301161 17.6322 0.243443 18.1658 0.225694L19.1514 0.189733C19.2634 0.174639 19.3764 0.167417 19.4895 0.16814Z" fill="#4CAF4F"/>
<path d="M23.59 16.9448H22.2591L19.3815 12.9017V10.2471C19.3815 10.2471 17.324 10.1176 17.5686 13.5923C17.8132 17.067 17.5686 16.1822 17.5686 16.1822C17.5686 16.1822 13.2018 16.1822 12.8421 16.5779C12.4824 16.9735 12.4608 21.1892 12.4105 23.5417C12.3829 24.1088 12.5456 24.6688 12.8728 25.1329C13.2 25.5969 13.6728 25.9383 14.2162 26.1028C14.3685 26.145 14.5258 26.1668 14.6838 26.1675C15.7773 26.1675 21.3383 25.2827 21.3383 25.2827H23.6332L23.59 16.9448Z" fill="#4CAF4F"/>
<path d="M27.3957 16.2324L26.5756 25.3257H24.3022V16.4195L27.3957 16.2324Z" fill="#4CAF4F"/>
</svg>
