<svg width="4" height="4" viewBox="0 0 4 4" fill="none" xmlns="http://www.w3.org/2000/svg">
<path d="M3.65309 1.95761C3.63186 2.24699 3.52616 2.52376 3.34908 2.75362C3.172 2.98347 2.93134 3.15628 2.65695 3.25062C2.38256 3.34496 2.08651 3.35668 1.80552 3.28432C1.52453 3.21196 1.27096 3.05872 1.07627 2.84358C0.881572 2.62845 0.754321 2.36087 0.710285 2.07408C0.666248 1.78728 0.707363 1.49387 0.828543 1.23023C0.949723 0.966594 1.14564 0.744333 1.39197 0.591006C1.63831 0.437678 1.92423 0.360033 2.21428 0.367706C2.61507 0.390039 2.99091 0.569496 3.26026 0.867128C3.52961 1.16476 3.67076 1.55658 3.65309 1.95761Z" fill="#4CAF4F"/>
</svg>
