<svg width="95" height="199" viewBox="0 0 95 199" fill="none" xmlns="http://www.w3.org/2000/svg">
<path d="M83.5941 1.00407H69.6664C69.2119 1.01249 68.7636 1.11036 68.347 1.29209C67.9304 1.47382 67.5536 1.73584 67.2383 2.06319C66.923 2.39054 66.6752 2.7768 66.5092 3.19992C66.3432 3.62304 66.2622 4.07472 66.2708 4.52916V7.05428C66.2794 7.50837 66.1982 7.95969 66.0321 8.38239C65.866 8.8051 65.6182 9.19089 65.3028 9.51767C64.9874 9.84445 64.6106 10.1058 64.194 10.2867C63.7774 10.4677 63.3293 10.5647 62.8752 10.5722L35.7248 10.4499C34.8063 10.4254 33.9351 10.0374 33.3025 9.37103C32.6698 8.70469 32.3276 7.81452 32.3508 6.89601V4.37089C32.374 3.45359 32.0327 2.56448 31.4016 1.89835C30.7705 1.23222 29.9011 0.843378 28.9839 0.81702H24.0848L11.8908 0.759472C8.99048 0.742204 6.20145 1.8749 4.13443 3.90956C2.06741 5.94422 0.890841 8.71503 0.862345 11.6153L0.142939 187.453C0.13631 188.891 0.413146 190.317 0.957649 191.649C1.50215 192.981 2.30366 194.193 3.3164 195.215C4.32914 196.237 5.53327 197.05 6.86006 197.606C8.18685 198.163 9.6103 198.453 11.0491 198.46L82.7596 198.79C84.1993 198.797 85.6263 198.52 86.9591 197.975C88.2918 197.43 89.5041 196.628 90.5269 195.615C91.5496 194.601 92.3628 193.397 92.9199 192.069C93.4769 190.741 93.7671 189.317 93.7737 187.877L94.4931 12.0398C94.5103 9.1313 93.3719 6.33504 91.3281 4.26564C89.2844 2.19624 86.5025 1.02309 83.5941 1.00407Z" fill="white"/>
</svg>
