<svg width="3" height="4" viewBox="0 0 3 4" fill="none" xmlns="http://www.w3.org/2000/svg">
<path d="M2.99077 2.03673C2.97092 2.32653 2.86634 2.60411 2.69003 2.83497C2.51372 3.06583 2.27344 3.23978 1.99908 3.3352C1.72472 3.43063 1.42838 3.44332 1.14686 3.37169C0.865344 3.30007 0.611075 3.1473 0.415674 2.93236C0.220274 2.71742 0.0923517 2.44979 0.0478042 2.16274C0.00325663 1.8757 0.0440539 1.5819 0.165118 1.31785C0.286183 1.05379 0.482179 0.831141 0.728746 0.677564C0.975313 0.523988 1.26157 0.446241 1.55195 0.454023C1.95079 0.478169 2.32442 0.657155 2.59319 0.952808C2.86197 1.24846 3.00463 1.6374 2.99077 2.03673Z" fill="#4CAF4F"/>
</svg>
