<svg width="4" height="4" viewBox="0 0 4 4" fill="none" xmlns="http://www.w3.org/2000/svg">
<path d="M3.23575 1.97923C3.2499 2.18204 3.22217 2.38558 3.15429 2.57722C3.0864 2.76887 2.97981 2.9445 2.84115 3.09318C2.70248 3.24186 2.53471 3.36042 2.34826 3.44149C2.16181 3.52255 1.96067 3.56439 1.75736 3.56439C1.55405 3.56439 1.35292 3.52255 1.16647 3.44149C0.980018 3.36042 0.812243 3.24186 0.673577 3.09318C0.534911 2.9445 0.428323 2.76887 0.360439 2.57722C0.292555 2.38558 0.264831 2.18204 0.278988 1.97923C0.264831 1.77641 0.292555 1.57285 0.360439 1.38121C0.428323 1.18957 0.534911 1.01394 0.673577 0.865253C0.812243 0.716571 0.980018 0.598008 1.16647 0.516944C1.35292 0.435881 1.55405 0.394043 1.75736 0.394043C1.96067 0.394043 2.16181 0.435881 2.34826 0.516944C2.53471 0.598008 2.70248 0.716571 2.84115 0.865253C2.97981 1.01394 3.0864 1.18957 3.15429 1.38121C3.22217 1.57285 3.2499 1.77641 3.23575 1.97923Z" fill="#4CAF4F"/>
</svg>
