<svg width="75" height="14" viewBox="0 0 75 14" fill="none" xmlns="http://www.w3.org/2000/svg">
<path d="M73.5004 13.5419C73.6457 13.5272 73.7884 13.4933 73.9249 13.4412C74.124 13.3633 74.2971 13.2309 74.4243 13.0591C74.5516 12.8873 74.6278 12.6831 74.6443 12.47C74.6443 11.3261 74.6443 9.65708 74.6443 7.51325C74.6443 6.44134 74.6443 5.23993 74.6443 3.91622C74.6443 3.59249 74.6443 3.25437 74.6443 2.91625C74.6911 2.58816 74.6197 2.25409 74.4428 1.97383C74.3438 1.83945 74.2149 1.72988 74.0664 1.65373C73.9178 1.57758 73.7536 1.53694 73.5867 1.53499H72.4645H62.069L1.8979 1.31198C1.74388 1.30936 1.59152 1.34396 1.45375 1.41285C1.31597 1.48173 1.19687 1.58287 1.10656 1.70765C0.932831 1.98905 0.866412 2.32366 0.919504 2.65007C0.919504 3.36948 0.919504 4.08889 0.919504 4.80829C0.919504 6.2471 0.919504 7.68592 0.919504 9.12473C0.919504 9.84413 0.919504 10.5635 0.919504 11.2829C0.88966 11.618 0.88966 11.9551 0.919504 12.2901C0.957297 12.4338 1.02754 12.5668 1.12482 12.6791C1.2221 12.7913 1.34382 12.8798 1.48064 12.9376C1.62239 12.994 1.77417 13.0209 1.92668 13.0167H5.58845L21.5665 13.103L48.6161 13.2685L66.8531 13.4124L71.8098 13.4699H73.0975C73.3925 13.4699 73.5364 13.4699 73.5364 13.4699H73.0975H71.8098H66.8531H48.6161L21.5665 13.3836L5.58845 13.3189H1.92668C1.72516 13.327 1.52417 13.2927 1.33676 13.2182C1.14733 13.1373 0.978871 13.0143 0.844222 12.8584C0.709572 12.7026 0.612289 12.518 0.559801 12.3189C0.518156 12.1301 0.503624 11.9363 0.516638 11.7434V11.211C0.516638 10.4916 0.516638 9.77219 0.516638 9.05278C0.516638 7.61397 0.516638 6.17516 0.516638 4.73635C0.516638 4.01694 0.516638 3.29753 0.516638 2.57813C0.502918 2.38653 0.502918 2.1942 0.516638 2.0026C0.543595 1.79098 0.62544 1.59009 0.754043 1.41988C0.878147 1.24623 1.0424 1.10516 1.23281 1.00871C1.42321 0.912253 1.63412 0.86328 1.84754 0.865948L62.0187 1.19687L72.4141 1.26881H73.5364C73.7341 1.26897 73.9289 1.31677 74.1042 1.40819C74.2795 1.49961 74.4302 1.63194 74.5435 1.79398C74.7464 2.10675 74.8282 2.48273 74.7738 2.85151C74.7738 3.18963 74.7738 3.52775 74.7738 3.85148C74.7738 5.1608 74.7738 6.36221 74.7738 7.44851C74.7738 9.60673 74.7234 11.2614 74.709 12.4124C74.6914 12.6337 74.611 12.8454 74.4772 13.0226C74.3433 13.1997 74.1617 13.335 73.9536 13.4124C73.8175 13.4968 73.6606 13.5416 73.5004 13.5419Z" fill="#E0E0E0"/>
</svg>
