<svg width="4" height="4" viewBox="0 0 4 4" fill="none" xmlns="http://www.w3.org/2000/svg">
<path d="M3.16323 2.07991C3.17738 2.28273 3.14966 2.48629 3.08178 2.67793C3.01389 2.86957 2.9073 3.0452 2.76864 3.19389C2.62997 3.34257 2.46219 3.46113 2.27574 3.54219C2.08929 3.62326 1.88816 3.66507 1.68485 3.66507C1.48154 3.66507 1.2804 3.62326 1.09395 3.54219C0.907497 3.46113 0.739733 3.34257 0.601067 3.19389C0.462401 3.0452 0.355814 2.86957 0.28793 2.67793C0.220045 2.48629 0.192322 2.28273 0.206478 2.07991C0.192322 1.8771 0.220045 1.67353 0.28793 1.48189C0.355814 1.29025 0.462401 1.11462 0.601067 0.965939C0.739733 0.817257 0.907497 0.698716 1.09395 0.617652C1.2804 0.536589 1.48154 0.494751 1.68485 0.494751C1.88816 0.494751 2.08929 0.536589 2.27574 0.617652C2.46219 0.698716 2.62997 0.817257 2.76864 0.965939C2.9073 1.11462 3.01389 1.29025 3.08178 1.48189C3.14966 1.67353 3.17738 1.8771 3.16323 2.07991Z" fill="#4CAF4F"/>
</svg>
