<svg width="4" height="4" viewBox="0 0 4 4" fill="none" xmlns="http://www.w3.org/2000/svg">
<path d="M3.40823 2.02231C3.387 2.31168 3.28128 2.58846 3.1042 2.81831C2.92712 3.04817 2.68646 3.22098 2.41207 3.31532C2.13768 3.40966 1.84163 3.42138 1.56064 3.34902C1.27966 3.27666 1.0261 3.12342 0.831403 2.90828C0.636708 2.69314 0.509446 2.42559 0.46541 2.1388C0.421373 1.852 0.462499 1.55857 0.583679 1.29493C0.704859 1.03129 0.900763 0.80903 1.1471 0.655703C1.39343 0.502375 1.67936 0.42473 1.96942 0.432403C2.36954 0.456558 2.74426 0.636542 3.01323 0.933757C3.28221 1.23097 3.42401 1.62177 3.40823 2.02231Z" fill="#4CAF4F"/>
</svg>
