<svg width="75" height="13" viewBox="0 0 75 13" fill="none" xmlns="http://www.w3.org/2000/svg">
<path d="M72.8889 12.828C73.0344 12.8108 73.1786 12.7844 73.3206 12.7489C73.5206 12.6853 73.7049 12.58 73.8612 12.4398C74.0174 12.2997 74.1422 12.1279 74.2271 11.936C74.3398 11.6454 74.3841 11.3328 74.3565 11.0223C74.3565 10.6698 74.3565 10.3029 74.3565 9.87846C74.3565 9.05114 74.3565 8.09433 74.3565 7.00084V2.4326C74.3909 2.10187 74.3177 1.76887 74.1479 1.48298C73.9662 1.19513 73.6884 0.98102 73.3638 0.878683C73.0057 0.812187 72.6409 0.790441 72.2775 0.813939H61.9252L1.9627 0.590925C1.64017 0.591686 1.32888 0.709548 1.08673 0.922592C0.844573 1.13564 0.68803 1.42935 0.646189 1.74916C0.646189 2.46856 0.646189 3.18797 0.646189 3.90738C0.646189 5.34619 0.646189 6.785 0.646189 8.22381C0.646189 8.94322 0.646189 9.66263 0.646189 10.382C0.619399 10.7159 0.633894 11.0517 0.689351 11.382C0.775506 11.6756 0.961192 11.9299 1.21451 12.1014C1.4786 12.2739 1.79203 12.3547 2.10658 12.3316H5.23599L21.1565 12.418L48.1126 12.5834L66.2848 12.7273L71.2271 12.7848H66.2848H48.1126L21.1565 12.7057L5.23599 12.641H2.10658C1.71715 12.6672 1.33001 12.5635 1.00589 12.346C0.678543 12.1193 0.439637 11.7863 0.329648 11.4036C0.265169 11.0381 0.245839 10.666 0.272094 10.2957C0.272094 9.5763 0.272094 8.8569 0.272094 8.13749C0.272094 6.69868 0.272094 5.25986 0.272094 3.82105C0.272094 3.10165 0.272094 2.38225 0.272094 1.62687C0.322954 1.21612 0.522107 0.838089 0.832111 0.563855C1.14211 0.289621 1.54161 0.138066 1.9555 0.137695L61.918 0.468616L72.2703 0.547762C72.6558 0.524114 73.0427 0.550705 73.4213 0.626886C73.7951 0.749013 74.1103 1.00532 74.3062 1.34629C74.4923 1.66316 74.5729 2.03096 74.5364 2.39662C74.5364 2.73474 74.5364 3.07287 74.5364 3.3966C74.5364 4.69873 74.5364 5.89294 74.5364 6.99364C74.5364 8.09433 74.5364 9.02236 74.5364 9.87126C74.5364 10.2813 74.5364 10.6626 74.5364 11.0151C74.564 11.3369 74.5121 11.6605 74.3853 11.9575C74.292 12.156 74.1569 12.3321 73.9892 12.4736C73.8216 12.6151 73.6255 12.7189 73.4141 12.7777C73.2454 12.8354 73.0655 12.8526 72.8889 12.828Z" fill="#E0E0E0"/>
</svg>
