<svg width="4" height="4" viewBox="0 0 4 4" fill="none" xmlns="http://www.w3.org/2000/svg">
<path d="M3.82546 2.00082C3.80423 2.2902 3.69852 2.56697 3.52144 2.79683C3.34436 3.02668 3.1037 3.19949 2.82931 3.29383C2.55492 3.38818 2.25887 3.39989 1.97788 3.32753C1.69689 3.25518 1.44332 3.10194 1.24863 2.8868C1.05394 2.67166 0.926684 2.40409 0.882648 2.11729C0.838611 1.8305 0.879726 1.53709 1.00091 1.27345C1.12209 1.00981 1.318 0.787546 1.56434 0.634218C1.81067 0.480891 2.09659 0.403245 2.38664 0.410919C2.78677 0.435073 3.1615 0.615058 3.43047 0.912273C3.69944 1.20949 3.84124 1.60028 3.82546 2.00082Z" fill="#4CAF4F"/>
</svg>
