<svg width="10" height="12" viewBox="0 0 10 12" fill="none" xmlns="http://www.w3.org/2000/svg">
<path d="M5.81786 6.26966C6.31761 6.04958 6.7416 5.68741 7.03708 5.2282C7.33257 4.76899 7.48649 4.23302 7.47969 3.687C7.49831 3.33205 7.44447 2.97702 7.32146 2.64355C7.19845 2.31007 7.00885 2.00513 6.76419 1.7473C6.51953 1.48946 6.22494 1.28414 5.89837 1.14383C5.5718 1.00351 5.22008 0.931152 4.86464 0.931152C4.5092 0.931152 4.15748 1.00351 3.83091 1.14383C3.50434 1.28414 3.20975 1.48946 2.96509 1.7473C2.72043 2.00513 2.53082 2.31007 2.40782 2.64355C2.28481 2.97702 2.23099 3.33205 2.24961 3.687C2.23865 4.23848 2.39132 4.78086 2.68837 5.24564C2.98542 5.71042 3.41352 6.07678 3.91862 6.29844C-0.110057 6.90274 0.0698122 11.2767 0.0698122 11.2767L9.59474 11.3199C9.59474 11.3199 9.81776 6.86677 5.81786 6.26966Z" fill="#4CAF4F"/>
</svg>
