<svg width="4" height="4" viewBox="0 0 4 4" fill="none" xmlns="http://www.w3.org/2000/svg">
<path d="M3.32841 2.12313C3.30856 2.41293 3.20399 2.69052 3.02768 2.92137C2.85137 3.15223 2.61111 3.32618 2.33675 3.42161C2.06238 3.51703 1.76603 3.52974 1.48451 3.45812C1.203 3.3865 0.94872 3.23371 0.753319 3.01876C0.557918 2.80382 0.429996 2.5362 0.385449 2.24915C0.340901 1.9621 0.381709 1.6683 0.502774 1.40425C0.623838 1.1402 0.819824 0.917544 1.06639 0.763968C1.31296 0.610392 1.59922 0.532667 1.8896 0.540449C2.28843 0.564595 2.66206 0.743559 2.93084 1.03921C3.19961 1.33487 3.34227 1.72381 3.32841 2.12313Z" fill="#4CAF4F"/>
</svg>
