<svg width="4" height="4" viewBox="0 0 4 4" fill="none" xmlns="http://www.w3.org/2000/svg">
<path d="M3.58065 2.05842C3.56101 2.34672 3.45751 2.62299 3.28288 2.85324C3.10826 3.08348 2.87012 3.25767 2.59779 3.35433C2.32546 3.45098 2.03081 3.46591 1.75011 3.39727C1.4694 3.32863 1.21488 3.17941 1.01788 2.96799C0.820875 2.75657 0.689969 2.49218 0.641292 2.20733C0.592614 1.92249 0.628292 1.62962 0.743907 1.36478C0.859522 1.09994 1.05004 0.874668 1.29202 0.716708C1.53401 0.558747 1.81688 0.474978 2.10586 0.475713C2.51106 0.490714 2.89381 0.665723 3.17023 0.962379C3.44666 1.25903 3.59426 1.65316 3.58065 2.05842Z" fill="#4CAF4F"/>
</svg>
