<svg width="4" height="4" viewBox="0 0 4 4" fill="none" xmlns="http://www.w3.org/2000/svg">
<path d="M3.74567 2.10148C3.72603 2.38979 3.62253 2.66608 3.44791 2.89633C3.27328 3.12657 3.03515 3.30074 2.76281 3.39739C2.49048 3.49405 2.19583 3.50898 1.91513 3.44034C1.63442 3.3717 1.3799 3.22248 1.1829 3.01106C0.985897 2.79964 0.855013 2.53525 0.806335 2.2504C0.757658 1.96555 0.793313 1.67269 0.908929 1.40785C1.02454 1.14301 1.21506 0.917737 1.45705 0.759777C1.69903 0.601816 1.98192 0.518069 2.2709 0.518804C2.67611 0.533805 3.05885 0.708792 3.33528 1.00545C3.61171 1.3021 3.75928 1.69623 3.74567 2.10148Z" fill="#4CAF4F"/>
</svg>
