<svg width="75" height="14" viewBox="0 0 75 14" fill="none" xmlns="http://www.w3.org/2000/svg">
<path d="M73.0328 13.5194C73.1781 13.5015 73.3223 13.4751 73.4645 13.4403C73.6654 13.3763 73.8503 13.27 74.0066 13.1285C74.163 12.9871 74.2872 12.8137 74.3709 12.6201C74.4842 12.3297 74.5285 12.017 74.5004 11.7065C74.5004 11.3612 74.5004 10.9871 74.5004 10.5698C74.5004 9.73532 74.5004 8.78571 74.5004 7.69221V3.12399C74.5347 2.79325 74.4616 2.46025 74.2918 2.17437C74.1143 1.88117 73.8352 1.66352 73.5076 1.56288C73.1493 1.49894 72.7844 1.4796 72.4213 1.50532H62.0691L2.10655 1.28231C1.78402 1.28307 1.47274 1.40092 1.23058 1.61397C0.98843 1.82701 0.831875 2.12075 0.790034 2.44055C0.790034 3.12399 0.790034 3.87937 0.790034 4.59877C0.790034 6.03759 0.790034 7.4764 0.790034 8.91521C0.790034 9.63462 0.790034 10.354 0.790034 11.0734C0.763235 11.4097 0.777729 11.7479 0.833197 12.0806C0.923019 12.3723 1.10789 12.6256 1.35836 12.8C1.6241 12.9686 1.93626 13.0492 2.25043 13.0302H3.2504H5.32949L21.2499 13.1094L48.2061 13.2748L66.3783 13.4187L71.3206 13.4762H66.3783H48.2061L21.2356 13.4475L5.31509 13.3899H2.18568C1.79657 13.413 1.41044 13.3095 1.08499 13.095C0.757644 12.8682 0.518739 12.5353 0.40875 12.1525C0.34427 11.787 0.32494 11.4149 0.351196 11.0446C0.351196 10.3252 0.351196 9.60583 0.351196 8.88643C0.351196 7.44762 0.351196 6.0088 0.351196 4.56999C0.351196 3.85058 0.351196 3.13118 0.351196 2.41177C0.403689 2.00041 0.604306 1.62228 0.915493 1.34817C1.22668 1.07406 1.62711 0.922771 2.04181 0.922607L62.0043 1.25353L72.3566 1.33266C72.7421 1.30902 73.129 1.33562 73.5076 1.4118C73.8814 1.53392 74.1966 1.79023 74.3925 2.1312C74.5786 2.44807 74.6592 2.81588 74.6227 3.18154C74.6227 3.51966 74.6227 3.85059 74.6227 4.18152C74.6227 5.48364 74.6227 6.67786 74.6227 7.77855C74.6227 8.87924 74.6227 9.80727 74.6227 10.6562C74.6227 11.0662 74.6227 11.4475 74.6227 11.8C74.6488 12.1217 74.597 12.445 74.4716 12.7424C74.3782 12.941 74.2431 13.117 74.0755 13.2585C73.9079 13.4 73.7118 13.5038 73.5004 13.5626C73.3432 13.5756 73.185 13.561 73.0328 13.5194Z" fill="#E0E0E0"/>
</svg>
